<svg xmlns="http://www.w3.org/2000/svg" viewBox="0 0 418.78 184.53"><defs><style>.cls-1{fill:#231916;}.cls-2{fill:none;stroke:#231916;stroke-miterlimit:10;stroke-width:0.75px;}</style></defs><g id="Layer_2" data-name="Layer 2"><g id="Layer_1-2" data-name="Layer 1"><path d="M184.18,6.83a2.69,2.69,0,0,0-.06,1c0,2.16,0,4.32,0,6.47,0,.33-.06.5-.43.52a9.52,9.52,0,0,0-1.42.2c-.46.1-.55-.07-.55-.5q0-6.49,0-13c0-.36,0-.72,0-1.08s.11-.41.39-.39h.06a4.62,4.62,0,0,1,1.67.06c.53.22.48,1,.67,1.47.77,2,1.49,4.06,2.23,6.1.06.16.08.33.23.44.14-.08.1-.21.09-.32,0-2.41,0-4.83,0-7.24,0-.4.11-.55.52-.52A10.75,10.75,0,0,0,189,0c.36,0,.48.11.47.47,0,1.15,0,2.3,0,3.44q0,4.82,0,9.61c0,.43-.09.61-.55.62a9.31,9.31,0,0,0-1.58.17c-.34.06-.49,0-.6-.36-.63-1.84-1.28-3.67-1.93-5.51Z"/><path d="M233.4,3.94c.26-.55.49-1,.7-1.49.3-.69.59-1.38.88-2.07a.46.46,0,0,1,.5-.34q.9,0,1.8,0c.36,0,.4.14.27.44-.48,1.07-1,2.15-1.43,3.23S235.18,5.9,234.7,7a.48.48,0,0,0,0,.39c.66,1.66,1.34,3.32,2,5,.29.75.58,1.5.89,2.24.14.34.07.46-.32.4-.63-.11-1.26-.18-1.89-.25-.27,0-.37-.18-.46-.41-.47-1.21-.95-2.41-1.43-3.62,0-.11,0-.27-.18-.27s-.13.17-.17.28c-.45,1-.9,2-1.33,3.05a.61.61,0,0,1-.78.43,13,13,0,0,0-1.53-.13c-.31,0-.39-.12-.26-.42.91-2.07,1.81-4.16,2.73-6.23a.76.76,0,0,0,0-.59C231.32,5.22,230.68,3.59,230,2c-.22-.54-.42-1.08-.64-1.62-.08-.2,0-.28.19-.28h2c.26,0,.33.17.41.38.41,1.08.84,2.16,1.26,3.24C233.3,3.73,233.33,3.78,233.4,3.94Z"/><path d="M191.67,7c0-2.14,0-4.28,0-6.42,0-.43.14-.55.56-.54,1.83,0,3.66,0,5.5,0,.44,0,.56.13.52.55a8.56,8.56,0,0,0,0,1.34c0,.38-.09.51-.48.5-1.08,0-2.16,0-3.24,0-.38,0-.55.08-.53.51a19.46,19.46,0,0,1,0,2.16c0,.43.14.53.53.51.75,0,1.5,0,2.26,0,.31,0,.47.06.45.43a14.81,14.81,0,0,0,0,1.49c0,.29-.11.38-.39.38-.81,0-1.61,0-2.42,0-.34,0-.44.12-.43.45,0,.86,0,1.71,0,2.57,0,.36.09.48.46.45,1.06-.08,2.12-.11,3.18-.2.45,0,.67,0,.6.56a5.17,5.17,0,0,0,0,1.18c0,.42-.09.55-.52.57-1.85.11-3.69.25-5.53.43-.43,0-.53-.05-.52-.47C191.68,11.28,191.67,9.14,191.67,7Z"/><path d="M208.54,6.53c0-2,0-4,0-6,0-.39.09-.54.51-.53q2.78,0,5.55,0c.42,0,.53.13.5.53a13.83,13.83,0,0,0,0,1.44c0,.32-.1.42-.41.41-1.1,0-2.19,0-3.29,0-.42,0-.53.14-.51.53,0,.69,0,1.37,0,2.06,0,.33.08.45.43.44.77,0,1.54,0,2.31,0,.34,0,.45.1.44.44,0,.5,0,1,0,1.49,0,.29-.1.39-.39.39-.74,0-1.47,0-2.21,0-.51,0-.59.17-.58.62,0,1.43,0,2.87,0,4.31,0,.37-.1.49-.46.47a13.83,13.83,0,0,0-1.44,0c-.37,0-.46-.14-.45-.48C208.55,10.61,208.54,8.57,208.54,6.53Z"/><path d="M202.19,7.82c0-1.61,0-3.22,0-4.83,0-.5-.16-.61-.61-.58s-1,0-1.49,0c-.29,0-.39-.1-.39-.39q0-.79,0-1.59c0-.28.09-.4.38-.4q3.27,0,6.52,0c.31,0,.44.1.42.42,0,.51,0,1,0,1.54,0,.31-.1.43-.41.42-.53,0-1.06,0-1.59,0s-.52.12-.52.53c0,3.22,0,6.43,0,9.65,0,.44-.09.62-.56.59a6.57,6.57,0,0,0-1.33,0c-.39,0-.47-.11-.46-.46C202.2,11.11,202.19,9.46,202.19,7.82Z"/><path d="M216.65,6.6c0-2,0-4,0-6.06,0-.37.08-.53.48-.5a8.56,8.56,0,0,0,1.34,0c.46,0,.53.16.52.56,0,2.14,0,4.28,0,6.42,0,1.15,0,2.3,0,3.44,0,.47.16.57.59.58,1,0,2,.11,3,.15.35,0,.53.11.49.52A8.44,8.44,0,0,0,223,13c0,.41-.13.49-.5.47-1.8-.11-3.59-.21-5.39-.28-.38,0-.48-.14-.48-.52C216.66,10.67,216.65,8.64,216.65,6.6Z"/><path d="M227.3,7c0,2.12,0,4.24,0,6.36,0,.39-.06.58-.5.51-.59-.09-1.35.11-1.74-.26s-.11-1.09-.12-1.66c0-3.8,0-7.6,0-11.4,0-.36.1-.49.46-.48a12.71,12.71,0,0,0,1.38,0c.39,0,.54.08.53.51C227.29,2.69,227.3,4.83,227.3,7Z"/><path class="cls-1" d="M72.32,57.46c0,4.36,1.32,9.95,7.52,9.95a10.83,10.83,0,0,0,10.87-11c0-4.49-2.86-5.85-5.28-5.85a3.74,3.74,0,0,0-3.87,4,3.18,3.18,0,0,0,3.17,3.35c.31,2.68-2.2,4.71-4.71,4.71-3.12,0-4.88-2-4.88-4.49,0-4.8,5.72-7.88,10.29-7.88,4,0,7,1.8,7,6.2,0,6.21-4.66,11.58-13.64,11.58-10.3,0-15.32-7-15.32-14.17,0-11.53,8-23.24,21.52-23.24,5.24,0,10,2.25,10,6.69a5.6,5.6,0,0,1-5.41,5.63c-2.2,0-4.62-1.8-4-4.44a3.54,3.54,0,0,0,3-3.65,3.58,3.58,0,0,0-3.74-3.83C77.82,30.93,72.32,46.64,72.32,57.46Z"/><path class="cls-1" d="M98.72,32.21c.13-.89-.57-1.55-1.81-1.15l-.13-.13a18.67,18.67,0,0,1,6.74-1.72c2.5,0,3.47.93,2.9,3.92l-4.09,21.3.17,0c3-11.26,7.35-13.9,11.31-13.9,5.5,0,5.15,4.53,4.62,7.56l-1.05,6.25c-.66,3.79-1.06,8.72.88,9.47l-.13.13c-4.76.92-10.17.35-9-6.78l1.76-10.91c.31-2.07.31-3.35-.74-3.35-2.47,0-5.5,5.06-7.13,11.62-.75,3-2,8.54-.49,9.29l-.13.13c-6,.88-9.06.52-7.79-6.56Z"/><path class="cls-1" d="M143.73,54.38c-.66,3.79-1,8.72.88,9.47l-.13.13a14.74,14.74,0,0,1-3.12.31c-3.74,0-7-1.59-5.72-7.09l1.62-6.78-.17,0c-2.77,11-6.16,13.91-10.12,13.91-4.62,0-6.25-4.1-6.25-8.15,0-7,6.29-15.57,14.34-15.57,4.36,0,7.84,3.78,11,.17Zm-15,4c0,1.81.4,3.48,1.54,3.48,2.69,0,5.59-6.87,6.74-13.34l.48-2.68c.66-3.56.31-5-1.85-5C131.94,40.92,128.68,51.21,128.68,58.43Z"/><path class="cls-1" d="M155.74,63.85l-.13.13a10.09,10.09,0,0,1-2.64.35c-3,0-6.12-1.5-5.15-6.91l2.47-13.86c.13-.88-.58-1.54-1.81-1.15l-.13-.13a18.67,18.67,0,0,1,6.73-1.71c2.51,0,3.52.92,2.91,3.91l-2.42,10,.17.05c2.95-11.27,5.9-14.31,10.39-14.31,3.91,0,5.63,2.47,5.63,5.11a5.86,5.86,0,0,1-6.12,5.89,3.34,3.34,0,0,1-3.6-3.87,3.51,3.51,0,0,0,3.25-3.61c0-1.36-.7-2.11-1.71-2.11-2.73,0-5.46,5.37-7.35,13C155.48,57.64,154.25,63.1,155.74,63.85Z"/><path class="cls-1" d="M174,43.56c.13-.88-.57-1.54-1.8-1.15l-.14-.13a18.77,18.77,0,0,1,6.74-1.71c2.51,0,3.39.92,2.9,3.91L180,54.6c-.53,3.08-1.54,8.5.09,9.25L180,64a16.68,16.68,0,0,1-3.22.35c-3.34,0-6-1.5-5.06-6.91Zm1.94-4.84c.92-1.45,1.36-4.8,0-6.47a5.93,5.93,0,0,1,4.89-3.17,3.42,3.42,0,0,1,3.65,3.48c0,3.43-4,6.47-8.49,6.29Z"/><path class="cls-1" d="M187.64,32.21c.13-.89-.57-1.55-1.8-1.15l-.14-.13a18.72,18.72,0,0,1,6.74-1.72c2.51,0,3.39.93,2.9,3.92L191.91,54.6c-.53,3.08-1.58,8.72-.09,9.46l-.13.14c-3.17.48-9.29.3-8.1-6.78Z"/><path class="cls-1" d="M212.41,43.78a2.58,2.58,0,0,0-2.55-2.86c-3.39,0-5.81,5.32-6.07,9.77-.26,4.66,1.41,8.75,6.29,8.75a8.83,8.83,0,0,0,6.78-3.12l.26.13c-2.77,4.58-7.43,7.84-12.54,7.84-5.32,0-9.11-3.53-9.11-9.42a14.67,14.67,0,0,1,14.79-14.3c3.43,0,8.45.83,8.45,4.92,0,3.26-3.79,7.53-14.61,4.67l0-.18C210.08,50.29,212.41,46.9,212.41,43.78Z"/><path class="cls-1" d="M258,58.64c1.11,3.54,2,5.13,4.08,5.13l0,.21H249.55l0-.21c2.76,0,2.82-2.31,2.1-4.86l-.63-2.25h-4.62c-3.27,6.09-6.78,10-11.37,10-3.78,0-6.9-2.07-6.9-6a5.87,5.87,0,0,1,6.09-5.7c2.88,0,6,1.71,6,4.74a3.69,3.69,0,0,1-3.9,3.69,2.53,2.53,0,0,1-2.64-3.21,2.7,2.7,0,0,0,2.58-2.82,2.26,2.26,0,0,0-2.49-2.16c-2.13,0-4.41,2.25-4.41,5.4a5.44,5.44,0,0,0,5.79,5.76c7.68,0,12.48-12.69,17.61-24.42Zm-11.37-2.28H251l-1.62-5.73C248.41,52.7,247.51,54.62,246.58,56.36Z"/><path class="cls-1" d="M264.22,50.06c.09-.6-.39-1.05-1.23-.78l-.09-.09A12.76,12.76,0,0,1,267.49,48c1.71,0,2.4.63,2,2.67l-1.65,6.78.12,0c2-7.68,5-9.48,7.71-9.48,3.75,0,3.51,3.09,3.15,5.16l-.72,4.26c-.45,2.58-.72,5.94.6,6.45l-.09.09a10.88,10.88,0,0,1-2.19.24c-2.49,0-4.56-1.08-4-4.86l1.2-7.44c.21-1.41.21-2.28-.51-2.28-1.68,0-3.75,3.45-4.86,7.92-.51,2.07-1.35,5.82-.33,6.33l-.09.09a16.81,16.81,0,0,1-2.52.24c-2.37,0-3.45-1-2.79-4.71Z"/><path class="cls-1" d="M296.35,57.44c-.42,2.58-.72,5.94.6,6.45l-.09.09a10.06,10.06,0,0,1-2.13.21c-2.55,0-4.8-1.08-3.9-4.83l.9-4.62-.12,0c-1.65,7.38-4,9.48-6.81,9.48s-4.44-1.8-4.44-5c0-4.86,3.39-11.13,9.66-11.13a6.11,6.11,0,0,1,2,.27l-.06.09c-3.72.18-6.15,7.89-6.27,12.69,0,1.26.27,2.16.9,2.16,1.68,0,3.84-3.75,4.65-8.58l2.1-12.33c.09-.6-.39-1-1.23-.78l-.09-.09a12.76,12.76,0,0,1,4.59-1.17c1.71,0,2.37.63,2,2.67Z"/><path class="cls-1" d="M315,38.3c5,0,12.81,2,16.89,2a4.7,4.7,0,0,0,3.54-1.2l.12.06c-2.34,4.59-5,5.85-7.92,5.85a16,16,0,0,1-3.66-.51c-1,.36-1.62,1.83-2,4.2l-1.71,10.74c-.51,3.21,0,4.29,2.46,4.29l0,.21H310.48l0-.21c3.15,0,3.45-1.68,4-5.19l1.38-9c.57-3.78,5.25-5,7.83-5.16-4.92-1.32-10.35-4.35-14.4-4.35-2,0-3.27.75-3.27,2.34a2.32,2.32,0,0,0,2.52,2.37,3.38,3.38,0,0,0,2.64-1.26,2.63,2.63,0,0,1,1.74,2.4c0,2.28-1.95,3.51-4,3.51a4.31,4.31,0,0,1-4.47-4.23C304.63,39.77,310.15,38.3,315,38.3Z"/><path class="cls-1" d="M327.67,42.32c.09-.6-.39-1-1.23-.78l-.09-.09a12.76,12.76,0,0,1,4.59-1.17c1.71,0,2.37.63,2,2.67l-2.79,14.52.12,0c2-7.68,5-9.48,7.71-9.48,3.75,0,3.51,3.09,3.15,5.16l-.72,4.26c-.45,2.58-.72,5.94.6,6.45l-.09.09c-3.24.63-6.93.24-6.15-4.62l1.2-7.44c.21-1.41.21-2.28-.51-2.28-1.68,0-3.75,3.45-4.86,7.92-.51,2.07-1.35,5.82-.33,6.33l-.09.09c-4.08.6-6.18.36-5.31-4.47Z"/><path class="cls-1" d="M354.22,50.21a1.76,1.76,0,0,0-1.74-2c-2.31,0-4,3.63-4.14,6.66s1,6,4.29,6a6,6,0,0,0,4.62-2.13l.18.09c-1.89,3.12-5.07,5.34-8.55,5.34s-6.21-2.4-6.21-6.42A10,10,0,0,1,352.75,48c2.34,0,5.76.57,5.76,3.36,0,2.22-2.58,5.13-10,3.18l0-.12C352.63,54.65,354.22,52.34,354.22,50.21Z"/><path class="cls-1" d="M19.81,110.26c0,4.36,1.32,9.95,7.53,9.95a10.84,10.84,0,0,0,10.87-11c0-4.48-2.86-5.85-5.28-5.85a3.75,3.75,0,0,0-3.88,4,3.18,3.18,0,0,0,3.17,3.35c.31,2.68-2.2,4.7-4.71,4.7-3.12,0-4.88-2-4.88-4.48,0-4.8,5.72-7.88,10.3-7.88,4,0,7,1.8,7,6.2,0,6.21-4.66,11.58-13.64,11.58-10.3,0-15.31-7-15.31-14.17C11,95,19,83.33,32.49,83.33c5.23,0,9.94,2.25,9.94,6.69A5.6,5.6,0,0,1,37,95.65c-2.2,0-4.62-1.8-4-4.44a3.54,3.54,0,0,0,3-3.65,3.58,3.58,0,0,0-3.74-3.83C25.31,83.73,19.81,99.44,19.81,110.26Z"/><path class="cls-1" d="M46.21,85c.13-.88-.57-1.54-1.8-1.14l-.13-.13A18.67,18.67,0,0,1,51,82c2.51,0,3.47.93,2.9,3.92l-4.09,21.3.18,0c2.94-11.26,7.34-13.9,11.31-13.9,5.5,0,5.14,4.53,4.62,7.56l-1.06,6.25c-.66,3.79-1.06,8.72.88,9.46l-.13.14c-4.75.92-10.17.35-9-6.78l1.76-10.91c.3-2.07.3-3.35-.75-3.35-2.47,0-5.5,5.06-7.13,11.62-.75,3-2,8.54-.48,9.28l-.14.14c-6,.88-9.06.52-7.79-6.56Z"/><path class="cls-1" d="M93.29,103.27c0,7.3-6.6,13.81-14.43,13.81-6.29,0-10.65-4.13-10.65-9.94,0-7.53,6.47-13.77,14.39-13.77C88.89,93.37,93.29,97.46,93.29,103.27Zm-8.09-5c0-2.59-.58-4.57-2.64-4.57-4.84,0-6.3,13.9-6.3,18.48,0,2.6.62,4.53,2.64,4.53C83.79,116.12,85.2,103.49,85.2,98.29Z"/><path class="cls-1" d="M109.62,93.37c3.12,0,8.45,1,8.45,5.45a5,5,0,0,1-5,4.93,3.25,3.25,0,0,1-3.48-3.87,3.44,3.44,0,0,0,2.69-3.3,2.79,2.79,0,0,0-3-2.86c-4.35,0-6.16,7-6.16,10.78,0,5.28,2.82,7.74,6.3,7.74a8.91,8.91,0,0,0,6.82-3.12l.26.13c-3.12,5.24-8.18,7.83-12.63,7.83-4.88,0-9-3.12-9-9.32A14.65,14.65,0,0,1,109.62,93.37Z"/><path class="cls-1" d="M144.24,103.27c0,7.3-6.6,13.81-14.43,13.81-6.29,0-10.65-4.13-10.65-9.94,0-7.53,6.47-13.77,14.39-13.77C139.84,93.37,144.24,97.46,144.24,103.27Zm-8.09-5c0-2.59-.57-4.57-2.64-4.57-4.84,0-6.3,13.9-6.3,18.48,0,2.6.62,4.53,2.64,4.53C134.74,116.12,136.15,103.49,136.15,98.29Z"/><path class="cls-1" d="M149.79,85c.13-.88-.58-1.54-1.81-1.14l-.13-.13A18.67,18.67,0,0,1,154.58,82c2.51,0,3.39.93,2.91,3.92l-3.44,21.47c-.52,3.08-1.58,8.72-.08,9.47l-.14.13c-3.16.48-9.28.3-8.09-6.78Z"/><path class="cls-1" d="M180.63,107.18c-.66,3.79-1,8.72.88,9.46l-.13.14a14.74,14.74,0,0,1-3.12.3c-3.74,0-7-1.58-5.73-7.08l1.63-6.78-.17,0c-2.77,11-6.16,13.9-10.12,13.9-4.62,0-6.25-4.09-6.25-8.14,0-7,6.29-15.57,14.34-15.57,4.36,0,7.84,3.78,11,.17Zm-15,4c0,1.81.4,3.48,1.54,3.48,2.69,0,5.59-6.87,6.74-13.34l.48-2.68c.66-3.56.31-5-1.85-5C168.84,93.72,165.58,104,165.58,111.23Z"/><path class="cls-1" d="M195.28,93.67h3.08l-.09.44h-3L193,107.4c-.62,3.79-1.06,8.72.88,9.47l-.13.13a16.77,16.77,0,0,1-2.16.17c-3.39,0-7.7-1.23-6.73-7l2.51-16.11h-2l.09-.44c6.34,0,9.77-2.11,10.78-8.36h.4Z"/><path class="cls-1" d="M214,96.58a2.58,2.58,0,0,0-2.55-2.86c-3.39,0-5.81,5.32-6.07,9.77-.27,4.66,1.41,8.75,6.29,8.75a8.85,8.85,0,0,0,6.78-3.12l.26.13c-2.77,4.58-7.44,7.83-12.54,7.83-5.33,0-9.11-3.52-9.11-9.41a14.67,14.67,0,0,1,14.79-14.3c3.43,0,8.45.83,8.45,4.92,0,3.26-3.79,7.53-14.61,4.67l0-.18C211.65,103.09,214,99.7,214,96.58Z"/><path class="cls-1" d="M252.44,93.89c.88-5.81,7.3-7.08,10.78-7.26v0c-5.5,0-10.3-4.31-15.75-4.31-2.73,0-4.67,1.1-4.67,3.43a2.65,2.65,0,0,0,2.91,2.77,4.25,4.25,0,0,0,3.34-1.76c5.15,2.33,1.81,8.8-3.34,8.8a6.4,6.4,0,0,1-6.52-6.33c0-4.1,3.39-7.31,8.14-7.31,5.59,0,10.92,4.4,16.16,4.4,1,0,1.4-.57,1.4-1.1,0-.7-.74-1.41-2-.66a2.36,2.36,0,1,1,4.45-1.06c0,1.68-1.76,2.47-2.6,2.73v0c2.42-.36,4.27-.27,11.44-.27l-1.67,10.61h-.4c1-6.47,0-10.21-6.86-10.21-4.4,0-5.19,1.85-5.85,6.2l-1.28,8.32c4.71,0,8.67-2.2,9.68-6.91h.31l-2.95,14.22h-.31c.84-4.27-2.06-7-6.73-7l-1.06,6.51c-1.76,11.22-13.64,13-19.53,13-4.49,0-9.82-3-9.82-8.76,0-5.15,4.49-8.36,8.94-8.36,4.22,0,8.8,2.51,8.8,6.95a5.41,5.41,0,0,1-5.72,5.41c-2.51,0-4.67-2-3.88-4.7a4,4,0,0,0,3.79-4.14c0-2.29-2-3.17-3.65-3.17-3.13,0-6.47,3.3-6.47,7.92a8.15,8.15,0,0,0,8.23,8.41c5.5,0,9.24-3.83,10.38-11.44Z"/><path class="cls-1" d="M294.81,107.18c-.66,3.79-1.05,8.72.88,9.46l-.13.14a14.74,14.74,0,0,1-3.12.3c-3.75,0-7.05-1.58-5.73-7.08l1.63-6.78-.17,0c-2.78,11-6.16,13.9-10.13,13.9-4.62,0-6.24-4.09-6.24-8.14,0-7,6.29-15.57,14.34-15.57,4.36,0,7.84,3.78,11,.17Zm-15.05,4c0,1.81.4,3.48,1.54,3.48,2.69,0,5.59-6.87,6.73-13.34l.49-2.68c.66-3.56.31-5-1.85-5C283,93.72,279.76,104,279.76,111.23Z"/><path class="cls-1" d="M313.24,93.37c3.13,0,8.45,1,8.45,5.45a5,5,0,0,1-5,4.93,3.25,3.25,0,0,1-3.48-3.87,3.44,3.44,0,0,0,2.69-3.3,2.79,2.79,0,0,0-3-2.86c-4.35,0-6.16,7-6.16,10.78,0,5.28,2.82,7.74,6.3,7.74a8.91,8.91,0,0,0,6.82-3.12l.26.13c-3.12,5.24-8.18,7.83-12.63,7.83-4.88,0-9-3.12-9-9.32A14.65,14.65,0,0,1,313.24,93.37Z"/><path class="cls-1" d="M333.79,93.67h3.08l-.09.44h-3l-2.2,13.29c-.62,3.79-1.06,8.72.88,9.47l-.13.13a16.77,16.77,0,0,1-2.16.17c-3.39,0-7.7-1.23-6.73-7l2.51-16.11h-2l.08-.44c6.34,0,9.77-2.11,10.79-8.36h.39Z"/><path class="cls-1" d="M360.63,103.27c0,7.3-6.6,13.81-14.43,13.81-6.29,0-10.65-4.13-10.65-9.94,0-7.53,6.47-13.77,14.39-13.77C356.23,93.37,360.63,97.46,360.63,103.27Zm-8.09-5c0-2.59-.57-4.57-2.64-4.57-4.84,0-6.3,13.9-6.3,18.48,0,2.6.62,4.53,2.64,4.53C351.13,116.12,352.54,103.49,352.54,98.29Z"/><path class="cls-1" d="M370.53,116.64l-.13.14a10.09,10.09,0,0,1-2.64.35c-3,0-6.12-1.5-5.15-6.91l2.47-13.86c.13-.88-.58-1.54-1.81-1.15l-.13-.13a18.67,18.67,0,0,1,6.73-1.71c2.51,0,3.52.92,2.91,3.91l-2.42,10,.17,0c3-11.27,5.9-14.31,10.39-14.31,3.91,0,5.63,2.47,5.63,5.11a5.86,5.86,0,0,1-6.12,5.9,3.36,3.36,0,0,1-3.61-3.88,3.51,3.51,0,0,0,3.26-3.61c0-1.36-.7-2.11-1.71-2.11-2.73,0-5.46,5.37-7.35,13C370.27,110.44,369,115.9,370.53,116.64Z"/><path class="cls-1" d="M407.85,116.47c-1,6-5.5,10.21-13.87,10.21-3.65,0-8.71-.79-8.71-4.8a4.3,4.3,0,0,1,4.49-4.27,3.33,3.33,0,0,1,3.52,3.66,2.52,2.52,0,0,0-2.46,2.46c0,1.28,1,2.55,3.38,2.55,3.44,0,4.49-2.55,5.29-6.64l3.16-16.42-.17,0c-3,11.26-5.86,13.9-10.52,13.9-6.07,0-5.9-4.53-5.41-7.56l2.15-13.16c.13-.88-.57-1.54-1.8-1.15l-.13-.13a18.67,18.67,0,0,1,6.73-1.71c2.51,0,3.39.92,2.9,3.91l-2.28,14.08c-.36,2.07,0,3.35,1.4,3.35,2.69,0,4.85-5.06,6.47-11.62.75-3,2-8.71.49-9.46l.13-.13c6-.44,8.89-.35,7.79,6.77Z"/><path class="cls-1" d="M58.3,143.31A2.53,2.53,0,0,1,55.5,146H53.59v-.12l.52-.39v-4.35l-.52-.38v-.12H55.5A2.53,2.53,0,0,1,58.3,143.31Zm-.88,0c0-1.28-.6-2.46-2-2.46h-.57v4.91h.57C56.82,145.76,57.42,144.58,57.42,143.31Z"/><path class="cls-1" d="M63.44,146H61.5v-.12l.6-.39L61.57,144h-1.7l-.52,1.44.6.47V146H58.47v-.12l.56-.47,1.79-4.85h.36L63,145.48l.48.39Zm-2.72-4.46L60,143.72h1.53Z"/><path class="cls-1" d="M67.54,141.81h-.2l-.7-1h-.82v4.65l.52.39V146H64.52v-.12l.52-.39v-4.65h-.81l-.71,1h-.2v-1.18h4.22Z"/><path class="cls-1" d="M71.56,146H68v-.12l.52-.39v-4.35l-.52-.38v-.12h3.53v1.26H71.3l-.64-1H69.25v2.27H70.4l.48-.51H71v1.23h-.1l-.48-.5H69.25v2.42h1.49l.64-1.12h.18Z"/><path class="cls-1" d="M49.81,161.91l.7.7v.18H46.92v-.18l.7-.7v-7.5l-3,6.82h-.36l-2.93-6.82v7.36l1,.84v.18H39.79v-.18l1-.84v-7.5l-.9-.69v-.18h3.3l2.15,5,2.19-5h3.07v.18l-.77.69Z"/><path class="cls-1" d="M56.14,162.93a1.12,1.12,0,0,1-1.16-.72,3.19,3.19,0,0,1-1.95.72,1.78,1.78,0,0,1-1.83-1.85,2.26,2.26,0,0,1,.67-1.57l3.07-.77v-.37c0-1-.21-1.55-1.28-1.55a4.34,4.34,0,0,0-1.65.39l-.19-.22a5.58,5.58,0,0,1,3.08-1.21,1.87,1.87,0,0,1,2,2.09v3.41a.59.59,0,0,0,.62.65,1.11,1.11,0,0,0,.39-.07L58,162A2.66,2.66,0,0,1,56.14,162.93Zm-1.2-.93v-2.91l-1.55.38a2.2,2.2,0,0,0-.3,1.12c0,.91.52,1.51,1.26,1.51A1.92,1.92,0,0,0,54.94,162Z"/><path class="cls-1" d="M60.81,162l.77.65v.14H58.21v-.14l.63-.65v-4.79l-.77-.66v-.14l2.74-.63V158l.16-.25c.17-.27.82-1.52,1-1.77a4.83,4.83,0,0,1,1.25-.17L63,157.94a5.52,5.52,0,0,0-2.07.31l-.07.11Z"/><path class="cls-1" d="M63.69,162a5.77,5.77,0,0,1,1.31-1.3,6.35,6.35,0,0,1,1.34,1.3,6.35,6.35,0,0,1-1.34,1.3A5.77,5.77,0,0,1,63.69,162Z"/><path class="cls-1" d="M75.3,162.79H70.39v-.14l1.47-.93V155L70.25,154v-.14l3.44-.63h.14v8.46l1.47.93Z"/><path class="cls-1" d="M78.74,159.29l-.27-.2c.28-.39.94-1.84,1.82-1.7l3.39.57a1.77,1.77,0,0,0,1.56-.57l.26.2c-.28.39-.94,1.84-1.82,1.7l-3.39-.56A1.72,1.72,0,0,0,78.74,159.29Z"/><path class="cls-1" d="M167.31,141.81h-.2l-.71-1h-.81v4.65l.52.39V146h-1.83v-.12l.52-.39v-4.65H164l-.71,1h-.2v-1.18h4.23Z"/><path class="cls-1" d="M169,145.48l.52.39V146h-1.82v-.12l.52-.39v-4.35l-.52-.38v-.12h1.82v.12l-.52.38Z"/><path class="cls-1" d="M175.47,145.48l.52.39V146h-1.82v-.12l.52-.39v-4.27L173,145.1h-.21L171,141.21v4.19l.6.45V146h-1.47v-.14l.6-.45v-4.27l-.52-.38v-.12h1.43l1.47,3.43,1.54-3.43H176v.12l-.52.38Z"/><path class="cls-1" d="M180.29,146h-3.61v-.12l.52-.39v-4.35l-.52-.38v-.12h3.53v1.26H180l-.64-1H178v2.27h1.15l.48-.51h.1v1.23h-.1l-.48-.5H178v2.42h1.49l.64-1.12h.18Z"/><path class="cls-1" d="M155.32,162.79h-3.71v-.24l.7-.64-.88-2.57h-2.58l-.94,2.43.84.78v.24h-2.32v-.24l.84-.78,3.39-8.51h.63l3.33,8.65.7.64Zm-5.11-7-1.19,3.1h2.25Z"/><path class="cls-1" d="M163.25,162.79H160v-.14l.63-.65v-4.09a1,1,0,0,0-1.05-1.15,1.24,1.24,0,0,0-.5.1l-.65.28V162l.64.65v.14h-3.23v-.14l.63-.65v-4.79l-.77-.66v-.14l2.73-.63v1l1.88-.91a4,4,0,0,1,.52-.05c1,0,1.77.55,1.77,2V162l.63.65Z"/><path class="cls-1" d="M166.84,155.92v.14l-.7.65,1.61,4.14,1.36-4-.73-.79v-.14h2.17v.14l-.74.79-2.21,5.49-1.31,4h-1.82v-.14l2.4-3.8h-.42L164,156.71l-.62-.65v-.14Z"/><path class="cls-1" d="M171.56,161.25v-4.53h-.94v-.21l2.73-1.92h.17v1.33h1.75l-.42.8h-1.33v4.39a.89.89,0,0,0,1,.92,2.21,2.21,0,0,0,.73-.14l.11.2a3,3,0,0,1-2,.84A1.59,1.59,0,0,1,171.56,161.25Z"/><path class="cls-1" d="M178.76,162.79h-3.23v-.14l.63-.65v-4.79l-.77-.66v-.14l2.73-.63V162l.64.65Zm-3-8.92a6.22,6.22,0,0,1,1.35-1.36,6.36,6.36,0,0,1,1.38,1.36,6.55,6.55,0,0,1-1.38,1.35A6.4,6.4,0,0,1,175.72,153.87Z"/><path class="cls-1" d="M190.53,162.79h-3.08v-.14l.49-.65v-4.09a1.07,1.07,0,0,0-.81-1.15,1.21,1.21,0,0,0-.5.1l-.71.31a2.63,2.63,0,0,1,.06.64V162l.49.65v.14h-2.94v-.14L184,162v-4.09a1.07,1.07,0,0,0-.81-1.15,1.29,1.29,0,0,0-.51.1l-.64.28V162l.49.65v.14h-3.08v-.14l.63-.65v-4.79l-.77-.66v-.14l2.73-.63v1l1.88-.91a3.76,3.76,0,0,1,.51-.05,1.45,1.45,0,0,1,1.38,1l2-1a3.75,3.75,0,0,1,.52-.05c.75,0,1.52.55,1.52,2V162l.63.65Z"/><path class="cls-1" d="M192.94,159.26c.16,1.55,1,2.53,2.2,2.53a2.5,2.5,0,0,0,1.56-.61l.16.12a3,3,0,0,1-2.59,1.63,3.22,3.22,0,0,1-3.25-3.5c0-1.94,1.29-3.23,3.3-3.65,2,.14,2.66,1.38,2.66,3V159Zm1.19-3.13c-.7,0-1.22,1.22-1.22,2.54v.24l2.1-.31C195,157.45,194.9,156.13,194.13,156.13Z"/><path class="cls-1" d="M122.84,180.28h-.2l-.71-1h-.81V184l.52.38v.12h-1.83v-.12l.52-.38V179.3h-.81l-.71,1h-.2V179.1h4.23Z"/><path class="cls-1" d="M128.25,184l.52.38v.12H127v-.12l.52-.38v-2.13h-2.21V184l.52.38v.12H124v-.12l.52-.38V179.6l-.52-.38v-.12h1.82v.12l-.52.38v2h2.21v-2l-.52-.38v-.12h1.82v.12l-.52.38Z"/><path class="cls-1" d="M131.48,184l.52.38v.12h-1.83v-.12l.52-.38V179.6l-.52-.38v-.12H132v.12l-.52.38Z"/><path class="cls-1" d="M133.52,184.25v-1.49h.2l.44,1a1.36,1.36,0,0,0,1.08.62,1,1,0,0,0,.92-1.06c0-.69-.61-1-1.23-1.31s-1.36-.65-1.36-1.56a1.42,1.42,0,0,1,1.57-1.4,4.68,4.68,0,0,1,1.38.18v1.3h-.2l-.4-.88a1.17,1.17,0,0,0-.8-.42.85.85,0,0,0-.87.93c0,.51.4.81,1.22,1.18s1.36.72,1.36,1.61a1.53,1.53,0,0,1-1.67,1.61A4.72,4.72,0,0,1,133.52,184.25Z"/><path class="cls-1" d="M145.12,182.07l-.52.38v1.69a3,3,0,0,1-1.56.39,2.46,2.46,0,0,1-2.57-2.73,2.6,2.6,0,0,1,2.75-2.78,4.83,4.83,0,0,1,1.25.17v1.23h-.19l-.51-.89a3.39,3.39,0,0,0-.71-.25c-1.18,0-1.71,1.14-1.71,2.37,0,1.4.61,2.62,1.74,2.62a1.72,1.72,0,0,0,.79-.23v-1.59l-.51-.38V182h1.75Z"/><path class="cls-1" d="M146.24,181.85a2.71,2.71,0,0,1,2.52-2.83c1.21,0,2.2,1,2.2,2.68a2.71,2.71,0,0,1-2.52,2.83C147.23,184.53,146.24,183.57,146.24,181.85Zm3.83-.08c0-1.27-.51-2.47-1.55-2.47-.87,0-1.4,1.2-1.4,2.47s.53,2.48,1.56,2.48C149.56,184.25,150.07,183.05,150.07,181.77Z"/><path class="cls-1" d="M156.17,184.45h-3.89v-.12l.52-.38V179.6l-.52-.38v-.12h1.83v.12l-.52.38v4.61h1.73l.67-1.1h.18Z"/><path class="cls-1" d="M162.17,181.77a2.53,2.53,0,0,1-2.81,2.68h-1.91v-.12L158,184V179.6l-.52-.38v-.12h1.91A2.53,2.53,0,0,1,162.17,181.77Zm-.88,0c0-1.27-.6-2.45-2-2.45h-.56v4.91h.56C160.69,184.23,161.29,183.05,161.29,181.77Z"/><path class="cls-1" d="M167.11,184.45h-3.62v-.12L164,184V179.6l-.52-.38v-.12H167v1.26h-.18l-.65-1h-1.4v2.26H166l.48-.5h.1v1.23h-.1l-.48-.5H164.8v2.42h1.48l.65-1.12h.18Z"/><path class="cls-1" d="M173.28,179.22l-.6.46v4.77h-.27l-3.15-4.55v4l.6.46v.12h-1.47v-.12l.6-.46v-4.19l-.52-.46v-.12h1.21l2.73,4v-3.37l-.6-.46v-.12h1.47Z"/><path class="cls-1" d="M180.71,180.28h-.2l-.71-1H179V184l.52.38v.12h-1.83v-.12l.52-.38V179.3h-.81l-.71,1h-.2V179.1h4.23Z"/><path class="cls-1" d="M183.13,184l.52.38v.12h-1.82v-.12l.52-.38V179.6l-.52-.38v-.12h1.82v.12l-.52.38Z"/><path class="cls-1" d="M185,181.8a2.52,2.52,0,0,1,2.59-2.78,5.59,5.59,0,0,1,1.34.17v1.23h-.2l-.51-.89a3,3,0,0,0-.79-.25c-1.1,0-1.55,1.14-1.55,2.37,0,1.4.61,2.62,1.6,2.62a1.3,1.3,0,0,0,.82-.32l.47-.84h.2v.95a3,3,0,0,1-1.63.47C186,184.53,185,183.49,185,181.8Z"/><path class="cls-1" d="M195,184.45h-1.25l-.16-.33-1.43-2.32h-.52V184l.52.38v.12H190.3v-.12l.52-.38V179.6l-.52-.38v-.12h1.82v.12l-.52.38v2h.53l1.62-1.88-.53-.46v-.12h1.49v.12l-.64.46-1.4,1.61,1.77,2.66.52.38Z"/><path class="cls-1" d="M199.62,184.45H196v-.12l.52-.38V179.6l-.52-.38v-.12h3.54v1.26h-.18l-.65-1h-1.4v2.26h1.15l.48-.5h.1v1.23h-.1l-.48-.5h-1.15v2.42h1.48l.65-1.12h.18Z"/><path class="cls-1" d="M205,180.28h-.2l-.7-1h-.82V184l.52.38v.12h-1.82v-.12l.52-.38V179.3h-.82l-.7,1h-.2V179.1H205Z"/><path class="cls-1" d="M211.86,184.45h-3.62v-.12l.52-.38V179.6l-.52-.38v-.12h3.54v1.26h-.18l-.65-1h-1.4v2.26h1.15l.48-.5h.1v1.23h-.1l-.48-.5h-1.15v2.42H211l.65-1.12h.18Z"/><path class="cls-1" d="M218,179.22l-.6.46v4.77h-.27L214,179.9v4l.6.46v.12h-1.47v-.12l.6-.46v-4.19l-.52-.46v-.12h1.21l2.73,4v-3.37l-.6-.46v-.12H218Z"/><path class="cls-1" d="M219.48,184.25v-1.49h.2l.44,1a1.36,1.36,0,0,0,1.08.62,1,1,0,0,0,.91-1.06c0-.69-.6-1-1.22-1.31s-1.37-.65-1.37-1.56a1.43,1.43,0,0,1,1.58-1.4,4.68,4.68,0,0,1,1.38.18v1.3h-.2l-.41-.88a1.13,1.13,0,0,0-.79-.42.85.85,0,0,0-.87.93c0,.51.4.81,1.22,1.18s1.36.72,1.36,1.61a1.53,1.53,0,0,1-1.68,1.61A4.7,4.7,0,0,1,219.48,184.25Z"/><path class="cls-1" d="M228.89,179.22l-.52.46v3.26c0,1-.9,1.59-1.92,1.59a1.59,1.59,0,0,1-1.79-1.59V179.6l-.52-.38v-.12H226v.12l-.52.38v3.34a1.24,1.24,0,0,0,1.25,1.34,1.22,1.22,0,0,0,1.22-1.34v-3.26l-.52-.46v-.12h1.5Z"/><path class="cls-1" d="M234.5,184.45h-1.18l-.14-.33L232,182.05h-.67V184l.52.38v.12h-1.82v-.12l.52-.38V179.6l-.52-.38v-.12h1.75c1.1,0,2.09.32,2.09,1.48,0,.91-.71,1.33-1.59,1.44l.62.12L234,184l.51.38Zm-1.45-3.87a1.23,1.23,0,0,0-1.4-1.28h-.29v2.53h.29C232.46,181.83,233.05,181.45,233.05,180.58Z"/><path class="cls-1" d="M239.16,184.45h-3.61v-.12l.52-.38V179.6l-.52-.38v-.12h3.53v1.26h-.17l-.65-1h-1.41v2.26H238l.48-.5h.1v1.23h-.1l-.48-.5h-1.15v2.42h1.49l.64-1.12h.18Z"/><path class="cls-1" d="M240.68,184.25v-1.49h.2l.44,1a1.38,1.38,0,0,0,1.09.62,1,1,0,0,0,.91-1.06c0-.69-.61-1-1.22-1.31s-1.37-.65-1.37-1.56a1.43,1.43,0,0,1,1.58-1.4,4.68,4.68,0,0,1,1.38.18v1.3h-.2l-.41-.88a1.13,1.13,0,0,0-.79-.42.85.85,0,0,0-.87.93c0,.51.4.81,1.21,1.18s1.36.72,1.36,1.61a1.53,1.53,0,0,1-1.67,1.61A4.76,4.76,0,0,1,240.68,184.25Z"/><path class="cls-1" d="M252.33,184.45h-1.94v-.12L251,184l-.52-1.53h-1.71l-.51,1.45.6.46v.12h-1.49v-.12l.56-.46,1.8-4.85h.36l1.78,4.93.48.38ZM249.61,180l-.78,2.19h1.54Z"/><path class="cls-1" d="M258,181.77a2.53,2.53,0,0,1-2.81,2.68h-1.91v-.12l.52-.38V179.6l-.52-.38v-.12h1.91A2.53,2.53,0,0,1,258,181.77Zm-.88,0c0-1.27-.6-2.45-2-2.45h-.57v4.91h.57C256.53,184.23,257.13,183.05,257.13,181.77Z"/><path class="cls-1" d="M264.67,184l.52.38v.12h-1.82v-.12l.52-.38v-4.28l-1.73,3.9H262l-1.71-3.9v4.2l.6.45v.13h-1.47v-.13l.6-.45V179.6l-.52-.38v-.12h1.43l1.47,3.43,1.54-3.43h1.3v.12l-.52.37Z"/><path class="cls-1" d="M267.9,184l.52.38v.12h-1.83v-.12l.52-.38V179.6l-.52-.38v-.12h1.83v.12l-.52.38Z"/><path class="cls-1" d="M273.76,180.28h-.2l-.7-1H272V184l.52.38v.12h-1.82v-.12l.52-.38V179.3h-.82l-.7,1h-.2V179.1h4.22Z"/><path class="cls-1" d="M278.86,180.28h-.2l-.7-1h-.82V184l.52.38v.12h-1.82v-.12l.52-.38V179.3h-.81l-.71,1h-.2V179.1h4.22Z"/><path class="cls-1" d="M284.36,184.45h-1.94v-.12l.6-.38-.53-1.53h-1.71l-.51,1.45.6.46v.12h-1.48v-.12l.56-.46,1.79-4.85h.36l1.78,4.93.48.38ZM281.64,180l-.78,2.19h1.54Z"/><path class="cls-1" d="M290.26,179.22l-.6.46v4.77h-.28l-3.15-4.55v4l.6.46v.12h-1.47v-.12l.6-.46v-4.19l-.52-.46v-.12h1.22l2.72,4v-3.37l-.6-.46v-.12h1.48Z"/><path class="cls-1" d="M291.54,181.8a2.52,2.52,0,0,1,2.59-2.78,5.51,5.51,0,0,1,1.33.17v1.23h-.2l-.5-.89a3.14,3.14,0,0,0-.79-.25c-1.1,0-1.55,1.14-1.55,2.37,0,1.4.61,2.62,1.6,2.62a1.33,1.33,0,0,0,.82-.32l.46-.84h.2v.95a3,3,0,0,1-1.63.47C292.53,184.53,291.54,183.49,291.54,181.8Z"/><path class="cls-1" d="M300.48,184.45h-3.61v-.12l.52-.38V179.6l-.52-.38v-.12h3.53v1.26h-.18l-.64-1h-1.41v2.26h1.15l.48-.5h.1v1.23h-.1l-.48-.5h-1.15v2.42h1.49l.64-1.12h.18Z"/><path class="cls-1" d="M309.71,145.48l.6.39V146h-1.9v-.12l.52-.39v-4.35l-.52-.38v-.12h1.69c1.21,0,2.24.36,2.24,1.52s-1.11,1.6-2.24,1.6h-.39Zm.31-4.65h-.31v2.72H310a1.36,1.36,0,1,0,0-2.72Z"/><path class="cls-1" d="M316.63,146h-3.88v-.12l.52-.39v-4.35l-.52-.38v-.12h1.82v.12l-.52.38v4.62h1.74l.67-1.11h.17Z"/><path class="cls-1" d="M321.89,146H320v-.12l.6-.39L320,144h-1.71l-.51,1.44.6.47V146h-1.48v-.12l.55-.47,1.8-4.85h.36l1.78,4.93.48.39Zm-2.72-4.46-.78,2.19h1.54Z"/><path class="cls-1" d="M322.13,143.33a2.52,2.52,0,0,1,2.59-2.78,5.61,5.61,0,0,1,1.34.18V142h-.2l-.51-.89a3.14,3.14,0,0,0-.79-.25c-1.1,0-1.55,1.14-1.55,2.37,0,1.4.61,2.62,1.6,2.62a1.25,1.25,0,0,0,.82-.32l.47-.84h.2v1a3.11,3.11,0,0,1-1.63.47C323.12,146.07,322.13,145,322.13,143.33Z"/><path class="cls-1" d="M330.35,146h-3.61v-.12l.52-.39v-4.35l-.52-.38v-.12h3.53v1.26h-.17l-.65-1H328v2.27h1.15l.48-.51h.11v1.23h-.11l-.48-.5H328v2.42h1.49l.65-1.12h.17Z"/><path class="cls-1" d="M262.7,157.77h1.57l.92-1h.24v2.41h-.24l-.92-1H262.7v4.25h2.1l1.23-1.84h.35v2.22h-6.57v-.18l.7-.7v-7.62l-.7-.71v-.18h6.57v2.22H266l-1.23-1.84h-2.1Z"/><path class="cls-1" d="M273.76,156.06l-.74.79-2.37,5.87-.77.21-2.67-6.22-.62-.65v-.14h3.46v.14l-.7.65,1.61,4.14,1.36-4-.73-.79v-.14h2.17Z"/><path class="cls-1" d="M275.75,159.26c.16,1.55,1,2.53,2.2,2.53a2.5,2.5,0,0,0,1.56-.61l.16.12a3,3,0,0,1-2.59,1.63,3.22,3.22,0,0,1-3.25-3.5c0-1.94,1.29-3.23,3.3-3.65a2.61,2.61,0,0,1,2.67,3V159Zm1.19-3.13c-.7,0-1.22,1.22-1.22,2.54v.24l2.1-.31C277.82,157.45,277.71,156.13,276.94,156.13Z"/><path class="cls-1" d="M283.14,162l.77.65v.14h-3.36v-.14l.63-.65v-4.79l-.77-.66v-.14l2.73-.63V158l.17-.25c.17-.27.81-1.52,1-1.77a4.7,4.7,0,0,1,1.24-.17l-.28,2.16a5.58,5.58,0,0,0-2.07.31l-.07.11Z"/><path class="cls-1" d="M289,155.92v.14l-.7.65,1.61,4.14,1.36-4-.73-.79v-.14h2.17v.14l-.74.79-2.21,5.49-1.31,4h-1.82v-.14l2.4-3.8h-.42l-2.45-5.71-.62-.65v-.14Z"/><path class="cls-1" d="M303.47,156.06l-.74.79-2.37,5.87-.77.21L298.08,159l-1.5,3.71-.77.21-2.68-6.22-.61-.65v-.14H296v.14l-.7.65,1.61,4.14.88-2.63-.57-1.51-.62-.65v-.14h3.32v.14l-.7.65,1.47,4.13,1.36-4-.73-.79v-.14h2.17Z"/><path class="cls-1" d="M311.11,162.79h-3.22v-.14l.63-.65v-4.09a1,1,0,0,0-1-1.15,1.21,1.21,0,0,0-.5.1l-.65.28V162l.63.65v.14h-3.22v-.14l.63-.65v-8.08l-.77-.66v-.14l2.73-.63v4.25l1.88-.91a3.75,3.75,0,0,1,.52-.05c1,0,1.76.55,1.76,2V162l.63.65Z"/><path class="cls-1" d="M313.52,159.26c.17,1.55,1,2.53,2.2,2.53a2.53,2.53,0,0,0,1.57-.61l.15.12a3,3,0,0,1-2.59,1.63,3.22,3.22,0,0,1-3.25-3.5c0-1.94,1.29-3.23,3.3-3.65a2.61,2.61,0,0,1,2.67,3V159Zm1.19-3.13c-.7,0-1.22,1.22-1.22,2.54v.24l2.1-.31C315.59,157.45,315.48,156.13,314.71,156.13Z"/><path class="cls-1" d="M320.91,162l.77.65v.14h-3.36v-.14L319,162v-4.79l-.77-.66v-.14l2.73-.63V158l.17-.25c.17-.27.81-1.52,1-1.77a4.7,4.7,0,0,1,1.24-.17l-.28,2.16a5.58,5.58,0,0,0-2.07.31l-.07.11Z"/><path class="cls-1" d="M325.53,159.26c.17,1.55,1,2.53,2.2,2.53a2.53,2.53,0,0,0,1.57-.61l.15.12a3,3,0,0,1-2.59,1.63,3.22,3.22,0,0,1-3.25-3.5c0-1.94,1.29-3.23,3.31-3.65,2,.14,2.66,1.38,2.66,3V159Zm1.19-3.13c-.7,0-1.22,1.22-1.22,2.54v.24l2.1-.31C327.6,157.45,327.49,156.13,326.72,156.13Z"/><path class="cls-1" d="M336,155.92v.14l-.7.65,1.61,4.14,1.36-4-.73-.79v-.14h2.18v.14l-.75.79-2.21,5.49-1.3,4h-1.82v-.14l2.39-3.8h-.42l-2.45-5.71-.62-.65v-.14Z"/><path class="cls-1" d="M339.82,159.45c0-2.08,1.49-3.25,3.48-3.67a3.37,3.37,0,0,1,3.47,3.46c0,2.1-1.49,3.27-3.47,3.69A3.37,3.37,0,0,1,339.82,159.45Zm4.78,0c0-1.33-.28-3.3-1.44-3.3-.87,0-1.17,1.41-1.17,3.09,0,1.35.3,3.32,1.45,3.32C344.33,162.56,344.6,161.15,344.6,159.45Z"/><path class="cls-1" d="M354.85,162.3l-2.73.63v-1l-1.88.92c-.22,0-.36,0-.52,0-1,0-1.76-.55-1.76-2v-3.83l-.77-.66v-.14l2.73-.49v5A1,1,0,0,0,351,162a1.21,1.21,0,0,0,.5-.1l.65-.28v-4.5l-.77-.66v-.14l2.73-.49v5.72l.77.66Z"/><path class="cls-1" d="M361.34,162.79h-3.22v-.14l.63-.65v-8.08l-.77-.66v-.14l2.73-.63V162l.63.65Z"/><path class="cls-1" d="M365.29,162.79h-3.22v-.14l.63-.65v-4.79l-.77-.66v-.14l2.73-.63V162l.63.65Zm-3-8.92a6.05,6.05,0,0,1,1.36-1.36,6.31,6.31,0,0,1,1.37,1.36,6.5,6.5,0,0,1-1.37,1.35A6.22,6.22,0,0,1,362.25,153.87Z"/><path class="cls-1" d="M373.2,162.79h-2.67l-.21-.79-1.56-2.59h-.31V162l.49.65v.14h-3.08v-.14l.63-.65v-8.08l-.77-.66v-.14l2.73-.63V159h.32l2-1.83-.91-1v-.23h2.73v.23l-1.22,1-1.13,1.06,2.31,3.78.67.65Z"/><path class="cls-1" d="M375.05,159.26c.16,1.55,1,2.53,2.2,2.53a2.5,2.5,0,0,0,1.56-.61l.16.12a3,3,0,0,1-2.59,1.63,3.22,3.22,0,0,1-3.25-3.5c0-1.94,1.29-3.23,3.3-3.65,2,.14,2.66,1.38,2.66,3V159Zm1.19-3.13c-.7,0-1.22,1.22-1.22,2.54v.24l2.1-.31C377.12,157.45,377,156.13,376.24,156.13Z"/><line class="cls-2" x1="179.74" y1="6.63" y2="6.63"/><line class="cls-2" x1="418.78" y1="6.63" x2="239.03" y2="6.63"/><line class="cls-2" x1="418.78" y1="135.89" y2="135.89"/><line class="cls-2" x1="418.78" y1="170.71" y2="170.71"/></g></g></svg>