<svg xmlns="http://www.w3.org/2000/svg" viewBox="0 0 412.57 408.13"><defs><style>.cls-1{fill:#2a2321;}.cls-2{fill:#beac98;}.cls-3{fill:#fdfdfd;}</style></defs><g id="Layer_2" data-name="Layer 2"><g id="Layer_3" data-name="Layer 3"><path class="cls-1" d="M334.73,67.64c11.25,5.38,20,14,29.11,22.2,3.4,3.09,4.81,7.44,6.8,11.41,4.47,8.94,10.72,16.83,15.28,25.7a112.1,112.1,0,0,1,5.15,12.28c3,8.08,7.49,15.48,10.28,23.65,4,11.63,8,23.4,9.49,35.51a204.49,204.49,0,0,1,1,43.28c-.08.92-.18,1.75-1.28,2-2.26,1.32-2.17,4-3.34,5.89.09.59-.77,1.09-.16,1.73l.06-.09c-2.11,2.11-2.61,5.12-4.2,7.52-6.34,9.57-8.72,21.08-15,30.69-2.16,3.32-4,6.85-6.28,10.09-3.78,5.38-4.86,11.71-6.66,17.79-3.5,11.77-6.7,23.65-12.7,34.49-1.68,3.05-3.62,6-5.39,9-1.13,1.9-2.85,1.18-4.1.62s.44-1,.5-1.63c1.94-2.19,2.94-4.89,4.08-7.51.2-.48.39-1-.1-1.27s-.82.13-1.09.6c-1.51,2.67-3,5.34-4.58,8a2.81,2.81,0,0,1-2.8,1.47c-8.43-.13-16.87-.07-25.3-.21a6.53,6.53,0,0,0-4.68,1.77c-8.32,7.13-16.4,14.6-25.59,20.64-9.37,6.15-19.55,10.73-29.93,14.89-1.34.54-2.63,1.22-4,1.76a7.53,7.53,0,0,1-1.9.12c10.24-6.21,20.55-11.19,30-17.55s17.76-14.6,27.25-21.24c-4.24.08-8.13-.49-12.17,2.21a345.21,345.21,0,0,1-45.33,25.48c-7.81,3.65-16.49,4.89-25,6.37-5.63,1-11,2.94-16.72,3.63-9.37,1.15-18.76.87-28.16.72-11.94-.2-23.84-1.33-35.74-1.67a116,116,0,0,1-28-3.82,61.69,61.69,0,0,1-24-12.69,238,238,0,0,0-21.15-16.55A16.34,16.34,0,0,1,74.18,361a72.1,72.1,0,0,0-17.55-17.26c-5.64-4.06-9.45-9.4-12.44-15.46a31,31,0,0,0-4.89-7.19,64.92,64.92,0,0,1-11.73-17.62c-2.27-5.2-5.88-9.57-9-14.19A65.7,65.7,0,0,1,7.73,262c-.22-1.42-.61-2.82-1-4.49,3.63.15,3.07-1.75,2.28-4.23-1.88-5.89-4.52-11.55-5.44-17.74a307.16,307.16,0,0,1-3.59-46c0-6.27.36-12.49,2.53-18.31,2.08-5.6,2.42-11.33,2.82-17.1a41.66,41.66,0,0,1,5.79-19.28c10.4-17.05,18.75-35.26,29.23-52.27,1.09-1.77,1.87-3.88,4-5.34.25,2.11-1,3.39-1.68,4.69-6,10.82-9.73,22.65-15.12,33.72-3.27,6.7-7.81,12.69-11,19.44-2.41,5-4.53,10-4.82,15.68-.24,4.52-1.19,9-1.82,13.52a1,1,0,0,0-.39,1.24l-.36,2.31a47,47,0,0,0-2,13.46A9,9,0,0,0,8,177.68c.58-3.36,2-6.48,2.65-9.8a1.25,1.25,0,0,1,.13-.53c.85.15,1.11-.36,1.38-1a21.75,21.75,0,0,0,1.59-5.75c1-5.42,3.17-10.49,4.59-15.8,1.58-5.86,6-10.3,9.23-15.36,4.5-7.11,11.38-12.51,14.62-20.53A193.9,193.9,0,0,1,52.1,88.14a169.92,169.92,0,0,1,9.53-15.67c6.7-9.6,16.18-16.07,25.58-22.63,4.78-3.34,10.14-5.7,15.28-8.31,8.56-4.35,15.78-10.52,23.73-15.67,7.15-4.63,14.3-9.28,22.23-12.54.88-.36,1.69-1,2.72-.55a3.39,3.39,0,0,1-2.17,1.8c-5.85,1.8-7.86,7-10.2,11.75-1,2.1-2.73,4.3-1.82,7l-.23,1c-.7.58-.74,1,.25,1.27a.89.89,0,0,0,.33.39c.46,1.48.14,2.21-1.61,2.5a34,34,0,0,0-10.65,3.74,1.49,1.49,0,0,0,1.65.72c5.18-.4,10,1.07,14.64,3.13a9.09,9.09,0,0,0,2.72.91c5.27.47,10.19,2.22,15.17,3.87,5.78,1.91,10.85,5.13,16.05,8.15,3.23,1.89,3.27,1.93,4.51-1.41a31,31,0,0,1,5.82-9.34c7.43-8.68,16.94-14.75,26.68-20.3,8.46-4.81,17.9-4.1,27.21-2.84,1.51.21,3,.81,4.51-.12,2.38,1.16,3-.42,3-2.19a5.44,5.44,0,0,0-1.91-4.07c-2.88-2.62-6.4-4.61-8.23-8.28-.33-.67-1.14-.64-1.79-.79-.36-2.29-1.81-3.6-3.85-4.52-1.48-.67-3.18-1-4.32-2.31a36.17,36.17,0,0,1,14.3,2.79c8.75,3.69,17.86,5.73,27.1,7.48,7.74,1.47,14.48,5.44,21.43,8.86a8.12,8.12,0,0,0,.74.45c8.58,2.82,14.05,9.38,19.22,16.2,3.37,4.43,8.25,7,12.29,10.61a9.63,9.63,0,0,1,1.59,1.27c7.2,9.76,18.69,12.58,28.69,17.79,4.43,2.3,8.23,5.46,12.15,8.46.63.48.94,1,.38,1.69-.68.89-1.29.47-1.95,0a106.08,106.08,0,0,0-9.82-6.75c-1.59-1-3.09-1.9-5.07-1.85-3.51.07-6.37-1.94-9.48-3.14l-8.28-3.83C332.32,64,332.63,66.69,334.73,67.64ZM324.9,57.09l-.07-.06.09.06.07.07Zm-6.72,7.67a.72.72,0,0,0-.37-.36,65.53,65.53,0,0,0-18.56-16.62,20,20,0,0,0-11.87-5.44,11.22,11.22,0,0,1-3.54-1.19,156.89,156.89,0,0,0-19.52-7.4c-.68-.22-1.4-1.09-2.28-.14,1.85,1.71,3.4,4.14,5.56,5a134.57,134.57,0,0,0,18,5.55c4.51,1,9.17,1.34,12.94,4.45,2.89,2.17,5.81,4.31,8.67,6.52.88.68,2.23,1.12,1.92,2.7-1.29-1.08-3-1.28-4.32-2.53-4-3.78-8-7.73-14.15-7.63a1.38,1.38,0,0,0-1.28-.49c-4.51.07-8.93-.12-13.15-2.19a9.48,9.48,0,0,0-5.55-1.12c2.43,2.8,3.23,6,5,8.79l.36.9c2.46,5.7,3.28,11.73,3.53,17.85a3,3,0,0,0,3.64,3c3-.5,6.16-.15,9.06-1.69,1.48-.78,3.41-1.37,5.23-.11,2.7,1.88,5.47,3.65,8.22,5.47.76.5,1.67.9,1.53,2.17-1.86-.11-2.84-1.5-4.21-2.13-2.51-1.15-4.57-3.86-7.51-3.34a63.36,63.36,0,0,1-8.59,1.27c-3.46.11-6.38,2.55-9.85,2.06s-6.92-.34-9.67,2.38c-.18.18-.61.34-.77.25-3.36-1.84-6.85-.27-10.17-.07s-6.82-.31-10,1c-2.75,1.14-5.36,2.64-8.27.44-.29-.22-.92-.06-1.37,0s-1.3-.14-1.38.68c-.07.65.54,1,1,1.34.87.71,2.26-.07,3.21.94-1.36,1.09-3-.06-4.63,1.39,3.75.71,3.84,3.34,3.68,6-.15,2.49,1.95,2.31,3.36,2.83,1.6.6,1.68-.39,1.54-1.67-.06-.62.64-1,1.24-1,3.63.35,7.25.78,10.88,1.19.09,0,.15.14.24.16,2.45.6,4.75,2.43,8.29.79-3.26-.32-2.64-2.73-3.68-4.21,2.71-1.16,4.51,2.2,7.14,1.22.38-.15.86.94.36,1.65-1.53,2.23.63,1.49,1.28,1.41,1.76-.23,2.47-1.77,3.34-3.8.55,2.94,1.94,2.81,3.82,2.32,1.56-.4,3.32,0,4.9-.34,1.86-.43.73-3,2.39-4.11.71,1.57.46,3,.53,4.4a1.38,1.38,0,0,0,1.42,1.5c.73,0,1.68-.19,1.63-.87-.27-3.49,2.13-1.91,3.45-1.73s2.73.76,3.9-.16c2.87-2.24,4.63-.25,6.3,1.62a15.9,15.9,0,0,1,2.23,3.73c.49,1,1.1,2.16,2.05,2.33,1.87.34,2.74,1.66,3.7,2.94.6.81,1,1.62,2.28,1.12.81-.31,1.31.38,1.38,1.09.11,1,.38,2.16-.3,3.1a.83.83,0,0,1-1.29,0c-3.28-3.36-7.24-5.86-10.94-8.71-2.43-1.87-9.68-3-12.23-1.24-.16.1-.45.29-.43.35.77,2.36-1.4,2.15-2.49,2.75a2.7,2.7,0,0,0-1.35,2.65c-.31,6.35-.89,12.67-.38,19.08.71,9,.88,18,1.28,27,.07.91-.25,2.16,1.32,1.93s3.3.1,4.75-1c2.92-2.14,6.09-2,9.35-.95l9.87,3.28a4.11,4.11,0,0,0,3.48,1.18c6.28,3,10.67,2,15.17-3.47,3.25.81,6.47,2.1,9.76,2.32,5.37.37,10.59,1.44,15.86,2.33l1.68.21a2.26,2.26,0,0,0,1.76.44l8.45,12.14c-1,1.74-3.19-1.55-3.74.76-.34,1.42.27,3.05.38,4.59a2.89,2.89,0,0,0,1,2,2.44,2.44,0,0,1,.58,2.65c-1,4.54-1.58,9.19-2.94,13.61s.49,9.1-1.48,13.4c-.13.27.14.74.25,1.11a5.69,5.69,0,0,1-.12,3.44q-2.85,8.87-5.69,17.74c-.61,1.9-2,3.24-3.1,4.81-3.51,5-10,6.73-13.1,12.15-.2.34-.82.47-1.26.66a7.54,7.54,0,0,0-2.69,2.11c-4.2,4.76-6.62,10.64-10,15.88-3.1,4.75-5,10.27-7.51,15.42-2.67,5.48-5.89,10.74-8,16.41-5.1,13.47-9.69,27.14-14.54,40.71-1.3,3.65-2.17,7.67-4.32,10.76-3.75,5.41-7.43,11-12.59,15.3-.48.4-.84,1-.51,1.52s1,.22,1.53,0q7.77-2.85,15.54-5.67c.51-.18,1.52-.42,1.33-.79-1.36-2.52.9-2.21,2.05-2.82,3.38-1.78,7-3.21,8.06-7.56,2.27-9.41,4.76-18.76,7.57-28a13.62,13.62,0,0,1,1.42-3.8c3.21-4.65,4.84-9.92,6.09-15.3.72-3.13,2.25-5.85,3.47-8.75,1.74-4.12,5.24-6.84,7.47-10.57,3.12-5.25,5.73-10.92,10.4-15.12.63-.56,1-1.52,2-1.48,1.54.07,2.27-1,2.82-2.12a10.84,10.84,0,0,1,2.41-2.85c5.31-5.34,11.79-9.14,17.72-13.66a31,31,0,0,0,9.26-11.34c1.05-2.19.75-4.68,1.48-7,1.72-5.48,4.35-10.72,4.6-16.66.09-1.93.32-4.61,2.07-5.53,2.78-1.47,2.72-4,3.42-6.27s-.74-4.78-.11-6.39c1.87-4.88.42-9.54.09-14.24-.16-2.3-1.09-4.64-4.22-4.53-1.9-2.39-2.81-5.4-5-7.54,3.06-2,5.53.56,8.24.61l.21.16.25-.1c-.11.78.39,1.24.86,1.73q2.54,2.66,5.05,5.33c.2.93.84,2.46.52,2.7-2.19,1.63-.63,3.45-.47,5.15a49.81,49.81,0,0,1,.36,9c-1.07,12.09-1.1,24.23-1.49,36.34-.27,8.31-.37,16.57-4.84,24.33.83-.06,1.43,0,1.52-.13,2.41-4.58,6.12-8.5,7.19-13.76,2.08-10.16,3.4-20.44,4.58-30.74.95-8.34,1.16-16.63-1.18-24.8-.23-.83-.43-2.24-.88-2.34-3.18-.73-2.83-3.82-4.13-5.78-.22-.93.25-1.31,1.11-1.39.76.41,1.17,0,1.48-.63,1.48-.84.43-2.13.57-3.21.91,0,1.1-.44.58-1.18,1.62-2.26.87-4.63.32-7-.05-.47-.09-.94-.17-1.41-1.1-6.19-5.46-10.8-7.91-16.31-4.44-10-11.32-18.07-19.12-25.36a70.22,70.22,0,0,1-9.65-11.83c-2.14-3.09-3.46-7.09-7.77-8.16a.49.49,0,0,0-.8,0l.06,0c-.36-.91-.86-1.42-1.82-.64l.11,0c.61-.73-.17-1-.52-1.28A95.68,95.68,0,0,0,340,87.23c-.55-1.11-1.73-1.48-2.63-2.16-2.29-1.7-5.19-2.54-6.9-5l-4.08-5.83a8.9,8.9,0,0,0-2.39-3l-.65-.69a.87.87,0,0,0-.27-.27l-1-1.12A12.64,12.64,0,0,0,319.39,66l-.6-.67ZM78.76,358.57c.06.24.18.58.44.34s-.08-.38-.32-.46l-.52-.65-.44-.74c-.19-.13-.51-.41-.54-.38-.38.35-.08.54.22.71l.52.64Zm-48.2-79.46-.15-.69a18,18,0,0,0-3.27-5.74c-1.41-2.52-3.24-4.91-4.14-7.6-3-8.87-6.48-17.54-9.29-26.47a105,105,0,0,1-4.34-22.92L8.13,196.93,7.07,197c-.4,6.22.74,12.37,1.31,18.54.77,5.27,1,10.62,2.22,15.82-.76,1.12-1.53,2.24.58,2.76l-.43,1h-.51l.35.34a86.34,86.34,0,0,0,4.72,16.64c2.45,6.49,3.46,13.51,7.12,19.55,2.11,3.48,4,7.1,6.91,10.35.78-1.79-1.3-2.63-.66-4l.92.9.46.59c.21.27.45.54.77.18C30.88,279.62,30.66,279.3,30.56,279.11Zm27.91,38.47.08.1a.71.71,0,0,0,.25-1.09c-.23-.38-.55-.31-.89-.18l.07.1c.85-1.41-.45-2.23-.91-3.27-.2-.39-.39-.78-.59-1.16L55.93,311l-.34-.95a2.69,2.69,0,0,0-.05-.57c-2.15-6.62-7.84-10.94-11-16.89a1,1,0,0,0-1.3-.28A42.34,42.34,0,0,1,36.34,289l0,.07c-.43-.92.11-2.55-1.78-2.41l.08.12c.77-.47.33-.93,0-1.38-.61-1.35-1.21-2.7-3-1.44-.29-.42-.61-1.28-1.14-.76s.28,1.26.57,1.87c.8,2.2,2.67,3.64,3.92,5.52.29.45.86.84,1.34.06a17.59,17.59,0,0,1,8.55,9.63c.61,1.5,1.09,3.45,3.06,4.07l0-.09c-.58.86,0,1.18.66,1.51-.13,2.33,1.95,3.17,2.92,4.65.37-.57-.15-1.47.81-1.58a2,2,0,0,1,1.45.55,10.26,10.26,0,0,1,1.23,1.85.54.54,0,0,0,.23.41l.52,1.07.57,1.17.56,1.44c-1.33,1.78-.27,3.22.69,4.67.56,2.1.63,4.33,1.75,6.28,4.79,8.3,11.16,15.48,16.64,23.28.06.85.74,1.32,1.15,2,4.37,6.84,11.12,10.83,17.83,14.87.82.51,1.48,1.41,2.72,1.19a4.86,4.86,0,0,0-2.28-1.67,69.34,69.34,0,0,1-20.57-21.47c-.26-.43-.52-1.07-1.28-.87l-.08-.13c.12-1.12-.22-1.87-1.5-1.86l0,0c.27-1-.06-1.61-1.15-1.7l-1.4-2.29c-.27-2.43-1.65-4.38-2.76-6.45-.86-1.78-1.67-3.58-2.6-5.32-.2-.37-.36-1.56-1.32-.61h0c1-.6.19-1.17,0-1.76a4.67,4.67,0,0,0-1.66-2.93c-.52-.84-.5-2.08-1.74-2.39l-.06.11Q59.46,317.21,58.47,317.58Zm43.1,52.6-.57-.64A4.77,4.77,0,0,0,98,368a4.51,4.51,0,0,0,3,1.47l.57.64a4.62,4.62,0,0,0,.41.34s.14,0,.21-.07ZM324.11,59.69,322.57,58v-.24l-.23-.06c-7-8.38-16.47-13.44-25.34-19.32-2.32-2.4-5.59-2.9-8.43-4.27A199.53,199.53,0,0,0,266,24.7c-.07-.35-.25-.43-.56-.22a2,2,0,0,0-1.78-.07l.07,0c-1-.9-2.27-.83-3.48-1a6.09,6.09,0,0,0-5.12-.26c4.85,2.66,9.79,3.86,14.43,5.79l1.11.66c4.72,2.48,9.39,5.09,14.62,6.39,2.12.77,4,2.18,6.35,2.29A4.1,4.1,0,0,0,294,39a1.11,1.11,0,0,0,.47.24,2.3,2.3,0,0,0,1.78,1.09L316,54.08h0c.82-.48,1,.39,1.44.67-.32.74.13,1.24.54,1.76,3.82,5.88,9.16,10.4,13.84,15.51a4.44,4.44,0,0,0,4.72,1.21c1.95,1.43,4.61,1.45,6.4,3.22.4.4,1,.87,1.51.32.71-.83-.29-1.15-.72-1.53a32.77,32.77,0,0,0-8.9-5.26l-3.47-1.86c-.42-1.88-1.9-2.94-3.21-4.13a.49.49,0,0,0-.46-.3.37.37,0,0,0-.25-.38,7.69,7.69,0,0,0-3-3.34A.33.33,0,0,0,324.11,59.69ZM70.76,347.33c-.32-.46-.65-.92-1-1.39-.58-1.27-1.07-2.6-2.51-3.2a7,7,0,0,0-1.35-1.85c-5.6-3.77-8.3-9.59-10.74-15.47a118.59,118.59,0,0,0-13.71-25.21c-.14-1.35-1.16-2-2.24-3.4.26,1.68.25,2.77,1.33,3.37,1.42,4.34,3.74,8.21,6,12.11.87,1.49,1.93,2.92,2.07,4.73-.17.54-1.07.44-1,1.22.27,3,2.25,5.18,3.88,7.49.34.49.42-1,1.16-.65,3.23,7.31,7,14.24,13.91,18.79l2.82,2.45,1,1.41a2.09,2.09,0,0,0,1.5,1.54A2.42,2.42,0,0,0,70.76,347.33Zm5,6.72-.82-.94c-.72-1.3-1.36-2.66-2.81-3.34a8.29,8.29,0,0,0,2.34,3.76l.79,1c.39.7.7,1.5,1.71,1.67C77,355.13,76.17,354.71,75.72,354.05ZM55.53,120.64a2.8,2.8,0,0,0-2,2.13A5.13,5.13,0,0,0,50.8,127c-3.33,2.08-3.8,6.19-6.31,8.84l-.79,0,.11.38.65-.45c4.24-1.35,4.78-5.44,6.46-8.7a8.38,8.38,0,0,0,3-4c.87-.51,1.77-1,1.74-2.23a1.2,1.2,0,0,0,1.37-1c3.47-2,7-3.93,9-7.68a16.11,16.11,0,0,0,2-8.54,22.36,22.36,0,0,1-5,8.46c-2.25,2.33-3.94,5.16-6.41,7.3Zm349.22,130c-1.46.85-1.54,2.45-2.07,3.8a3.89,3.89,0,0,0-.51.66c-.3.59-1.56,1.14-.64,1.78,1.07.76.84-.8,1.33-1.2.19-.16.25-.49.38-.74.5-1.4,1.64-2.55,1.63-4.15l.2-.37ZM81.83,332.25c-.27-.6-.17-1.71-1.22-1.38-.68.21-.18.93,0,1.43a11.83,11.83,0,0,0,2.28,5.34C83.44,335.47,82.6,333.86,81.83,332.25Zm275.33-7a12.87,12.87,0,0,0-1.91,6.44c-.37-.07-.49.17-.51.46,0,.1.14.2.22.3.08-.26.17-.53.25-.8a14.77,14.77,0,0,0,2.76-6.47l.1-1.08C357.24,324.06,357.37,324.79,357.16,325.25Zm-217,64.59a118,118,0,0,0,13.94.72c2.68.87,5.43.35,8.15.39-2.68-.8-5.33-1.77-8.16-.86a7.38,7.38,0,0,0-3.07-.57c-3.23-.37-6.51.14-9.72-.52l-8.34-1.47C135.2,388.86,137.51,389.93,140.14,389.84ZM5.27,200.69c-.06,5.11-.3,10.24,1.18,15.24.89-5.17-.66-10.23-.65-15.36.38-1.88-.21-3.56-1-5.93C4.34,197.2,4.94,198.93,5.27,200.69Zm230.28,21.37c0,.94,0,1.88-.05,2.81a29.09,29.09,0,0,0-1,16.55c3.27,13.69,2.82,27.56,2.85,41.43a3.27,3.27,0,0,1-.58,2.21c-3.87,3.39-2.83,8.29-3.91,12.51-1.25,4.87-1.19,10.05-3,14.78a141.38,141.38,0,0,0-9.77,44.43,12.43,12.43,0,0,1-2.18,7.05c-2.05,2.85-.6,6.08-.78,9.16a16.79,16.79,0,0,0,3.39-3.41c8.56-12.24,17.55-24.17,25.58-36.78,7.37-11.58,15.65-22.54,21.55-35.07a84.8,84.8,0,0,1,13.05-20.18,11.64,11.64,0,0,0,2.69-8.62q-1.2-29.24-1.91-58.5c-.21-8.83,0-17.67.22-26.5.07-2.84-1-3.51-3.41-2.69-2.62.89-5.11,2.15-7.64,3.23-1.61.68-3.53,0-4.62,1.1-1.85,1.91-4,1.56-6.22,1.64a4.31,4.31,0,0,0-2.51.47A9,9,0,0,1,250.2,189c-1.71-.35-3.44-.6-5.18-.79-2.73-.3-4.49,1.4-6,3.29-1.31,1.63.82,2.44,1.2,3.7.43,1.47,1.69,3.5.21,4.22-2.35,1.16-1.53,2.52-1.16,4a19.14,19.14,0,0,1,.57,5.48c0,.78,0,1.6-.84,2-3,1.54-2.45,4.55-2.89,7.14l-.05,2.64C235.38,221,235,221.34,235.55,222.06Zm131.84,79.8c-6.27,5.79-6.95,14-9.79,22.07.77-.69.95-.78,1-.93,3.27-7,4.48-15,10-21l5.52-8.83-.83-.51C370.65,295.25,369.6,299,367.39,301.86ZM164.13,389a88,88,0,0,0,31.29.46L164,388.22c-1.38-1-2.72-.61-4.06.25ZM382.67,272.21c1,1.1-.11,1.88-.47,2.73-1.22,2.91-3.19,5.51-4,9.31.77-.68,1.14-.87,1.3-1.17q7.46-13.8,14.87-27.62c.28-.52.69-1.19,0-1.5s-1.09.45-1.42,1c-2.47,4.49-4.94,9-7.48,13.41-.35.61-.33,1.85-1.64,1.54-.63-1.68,2-2.86.7-5-1.83,2.77-3.71,5.16-4,8.44C381.64,273.37,382,272.51,382.67,272.21Zm25.39-28.16a6.21,6.21,0,0,0,.91-3.3c.09-4.26.42-8.52.42-12.78,0-14.29.17-28.63-3.76-42.55-.67-2.37-.69-5-2.62-7.85,1.51,6.43,3.36,12,4,17.78a177.81,177.81,0,0,1,1.25,25.8c-.2,7.44.65,14.92-.79,22.32-.49.57-1,1.36-.23,1.81C407.68,245.53,407.79,244.49,408.06,244.05ZM149.42,377.81l9.46.48c13,.66,25.86,2.24,38.87,1.56a22.68,22.68,0,0,0,6.1-1.05c-2.35-.15-4.67-.15-7-.15-15.84,0-31.67-.74-47.49-1.41-3.25-.36-6.78,0-9.69-1.2-14.11-5.7-28-11.83-40.9-20.06-1.59-1.32-3-2.9-5.24-3.17,1.32,1.57,2.5,3.23,4.47,4,9.08,7.44,19.5,12.46,30.33,16.7,4.56,1.8,9,4,14.09,4.19a.68.68,0,0,0,1.12.05Zm140.5-17a12,12,0,0,0-5.06,1.95c-3.66,2.35-7.33,4.72-11.15,6.79-7.3,3.95-14.06,9-22.18,11.29-4.18,1.19-8.42,2.15-12.58,3.39-7.59,2.26-15.11,5.13-23,5.84-15.85,1.44-31.69,3.15-47.16,3.05a17.31,17.31,0,0,0,3.93.88c6,.85,12,.46,18,.31,9.61-.25,19.24-.82,28.61-3.1s18.88-5.05,28.3-7.68a59.3,59.3,0,0,0,11.47-4.07,321.47,321.47,0,0,0,30.75-18.13c2.71-.12,5.05-1.9,7.87-1.58C294.83,358.11,292.4,359.61,289.92,360.83ZM312.08,171.6c-1.23.6-3.67.16-3.07,2.5,1.38,5.43,1.67,11,2.49,16.48-.81,3.92.06,7.93-.48,11.83-1.38,9.85-4.58,19.35-5.74,29.24a7.51,7.51,0,0,1-.8,3.08c-4.58,7.36-6.36,15.76-9,23.85a5.64,5.64,0,0,0-.25,2.57c1.94,11.41,3.93,22.81,6,34.5a11.36,11.36,0,0,0,1.64-2.34c2.36-6.7,5.73-12.94,8.81-19.31,1.76-3.64,3.26-7.61,6.12-10.48a21.7,21.7,0,0,0,5.09-7.92,74.22,74.22,0,0,1,2.83-7.64c3-6,4.17-13.09,10.14-17.3,3.38-2.38,4.88-5.91,6.34-9.51.51-1.26.84-2.59,1.4-3.82,7-15.46,7.68-31.89,7.41-48.46a7.78,7.78,0,0,0-.26-1.72c-.53-2.14-1.59-3.53-4.11-2.79a2.08,2.08,0,0,1-1.39,0c-3-1.75-6.28-.6-9.37-1.14a11.77,11.77,0,0,0-6.74.51c-3.36,1.37-6.66,2.88-10,4.23C316.75,168.93,313.72,169.08,312.08,171.6ZM181.42,115.23c-.4-.94,1.51-1,.72-1.85a3.12,3.12,0,0,0-2.14-.72,3.63,3.63,0,0,0-2.43.79c-2,2.44-5.3,2.94-7.75,3.33-4.83.76-8.28,4.23-13,5.16-3.67.71-7,3.22-10.46,4.9-.69.33-1.57.42-1.82,1.3-1.41,4.92-3.82,9.5-4.88,14.53-1.47,6.92-2.82,13.86-4.43,20.74-.85,3.65-.86,3.86,2.92,3.55a6.43,6.43,0,0,0,2.8-.62c6.87-4.34,14.44-7.16,21.89-10.2,6.08-2.48,12.08-5.4,18.86-5.52q18.63-.31,37.26-.63c8.33-.15,16.68-.82,25-.33,6.91.41,14,.08,20.53,3a7.07,7.07,0,0,0,3.43.36,53,53,0,0,1,10.46-.1c3.57.35,3.6.24,3.44-3.34a278.37,278.37,0,0,1,.3-28.16c.37-6.53-1.09-12.93-.44-19.4a1.3,1.3,0,0,0-1.06-1.51c-.72-.21-1.07.27-1.35.8-1.08,2.07-3.18,2.62-5.12,2.77a19.82,19.82,0,0,0-6.91,1.66c-1.38.63-2.92,1.52-4.67,1.35-4.35-.44-8.72-3-13.06,0a126.78,126.78,0,0,0-25.24,2.93c-.61.14-1.51.34-1.75-.52-.29-1,.65-1,1.29-1.06a6,6,0,0,0,2.7-.94c-2.55-1.22-8.47-.4-9.51,1.46-1.2,2.17-2.84,2.57-5.12,2.13-2-.38-3.83-1.08-6-.77-3.44.5-7,2.12-10.46,0-.36-.22-1.11.12-1.65.3-2,.68-3.92,1.78-6,2C185.4,113,184.14,116,181.42,115.23ZM217.3,243.85c-1.53,4.43-1,9-1.49,13.52-1,8.87-1.3,17.82-1.91,26.73-.13,1.85.41,4-.08,5.46-1,3-3.53,4.9-7.13,5.24-7.26.69-14,2.71-18.79,8.82a19.37,19.37,0,0,1-4.78,4.24c-2,1.3-2.46,2.93-2.29,5.13.11,1.52.59,3.27-.3,4.57-1,1.51-.52,2.84-.47,4.37.2,5.36,3.3,10.64.45,16.1-.26.5.14,1.32.14,2,0,4,1.07,7.89.15,11.86-.32,1.39-1.35,2.61-.92,4.19,1.44,5.31,1.11,10.72.87,16.13-.14,3.41,1.12,4.49,4.57,4.28,2.91-.17,6-.87,8.7-.26,5.35,1.21,10.76.85,16.11,1.44,1,.11,1.81-.21,1.5-1.46-1.17-4.78-.27-9.46.11-14.26.53-6.86,2-13.56,2.61-20.37.47-5.39,1-10.82,3-15.84,2.39-6,.48-12.14,1.38-18.16.78-5.16.09-10.46,1.2-15.6a26.12,26.12,0,0,0,.26-7.07c-.53-10.5-2.35-20.84-3.23-31.28,0-.67-.27-1.67.07-2C219.79,249.11,217.53,246.43,217.3,243.85Zm166.51-3c-1.74-.55-2.29.4-2.82,1.16a19.64,19.64,0,0,1-9.81,7.55,7.31,7.31,0,0,0-2.1,1.41c-5.51,4.34-11.31,8.27-15.66,14-2.4,3.17-5,6.23-7.37,9.46-3,4.08-5.48,8.67-10.25,11.28a11.38,11.38,0,0,0-4.31,4.15,154.94,154.94,0,0,0-13.37,33.7c-2.16,7.69-2.86,15.84-6.08,23.24-1.51,3.49-2.81,7.54-7.28,8.77-.67.18-1.32.78-1.19,1.46s.95.75,1.66.83a115.49,115.49,0,0,0,12.2.43c3.24,0,6.25.27,7-3.91.09-.43.56-.77.82-1.18,3.1-4.79,5.77-9.79,6.66-15.49a46.85,46.85,0,0,1,2.4-8.51c2.38-6.62,5-13.18,6.75-20,1.46-5.52,2.7-10.61,8.21-14.26,5.94-3.92,10-10.23,15-15.37a8.65,8.65,0,0,0,2.55-5.75c.17-5.24,2.16-9.73,5-14C375.9,253.62,379.78,247.27,383.81,240.87Zm-90.21,76c-3.92,2.06-4.07,2-5-1.76-1.42-5.76-1.9-11.66-2.52-17.55-.56-5.3-1.38-10.57-2.17-16.44-1.19,1.88-2,3.2-2.84,4.48-6.85,10.13-11.43,21.38-14.8,33A178.2,178.2,0,0,1,258.48,341c-1.68,3.8-3,8-5.56,11.09a28.58,28.58,0,0,0-4.8,8.73c-.91,2.4-.87,4.94-1.51,7.36-1,3.88-.8,3.83,3.32,4.34,2.46.3,3.78-1.82,5.81-1.88a38.91,38.91,0,0,0,7.46-1.17c2.87-.64,6-1.18,6.69-4.92a3.72,3.72,0,0,1,1-1.43c3.21-3.84,6.34-7.73,8.11-12.51.43-1.17.86-2.5,2.12-3a5,5,0,0,0,2.73-3.21,127.34,127.34,0,0,0,5.57-16.23,7.59,7.59,0,0,1,1-2.69C292.23,323.05,292.41,320.11,293.6,316.91ZM157.91,285.36v.24c-2.81-.13-5.62-.15-8.42-.41q-3.57-.33-3.53-4.11c.07-4.95-.15-9.9,0-14.85.27-10.58.63-21.16,3.89-31.38.7-2.23,1.43-4.55,3.23-6.1,1.54-1.34,1.83-2.8,1-4.35a10.68,10.68,0,0,1-1-6.69,4.33,4.33,0,0,0-.69-2.48c-1.88-3.61-3.51-7.35-6-10.61a5.41,5.41,0,0,1-1.29-3.68c.08-2.86-1.78-4.88-3.59-4.08-3.75,1.67-7.23.15-10.8-.32-1.3-.18-1.95-.23-2.25,1.25-1.36,6.85-2.79,13.68-4.24,20.52a4.27,4.27,0,0,0,.3,3.11c1,1.77.9,3.74,1.08,5.64a59.77,59.77,0,0,0,1.71,10c2.45,8.93,5.86,17.56,7.79,26.68,1.31,6.16,1.3,12.54,3.27,18.55,1,3.15,2,6.55,5.34,8.12,7.64,3.59,15.18,3.43,22.5-1,.91-.56,2-1.08,1.56-2.44a2.38,2.38,0,0,0-2.51-1.56C162.76,285.32,160.33,285.36,157.91,285.36Zm-29.47-15.14c0-.9,0-1.27,0-1.63-.39-3.52-2.86-6.54-2.88-10a23.2,23.2,0,0,0-2.45-10.63c-2.7-5.19-2.74-12.1-9.39-14.89-2.46-1-2.95-3.08-1.86-5.54,2.47-5.54,2.11-10.83-1.52-15.8-.32-.45-.67-1.21-.51-1.61,1.06-2.58-.53-4.49-1.48-6.56-1.31-2.82-2.65-5.62-4-8.44-.35-.77-.92-1.5-.41-2.45,1.47-2.79,0-3.23-2.47-3.44a56.83,56.83,0,0,1-12.79-2.25c-2.67-.87-5.66-.8-8.42-1.8-1-.36-2.3.07-3.44.25s-1.63.86-1.16,1.88c2.35,5.17,2.91,11,6.13,15.88,1.67,2.54,3.37,5.15,3.8,8.36s2.38,5.86,3.67,8.76c1.42,3.19,4.21,5.72,4.92,9.16,1.31,6.26,3.62,12.17,5.54,18.22.62,1.94,1.48,3.52,3.61,4.2a16.28,16.28,0,0,1,3.36,1.69A139.57,139.57,0,0,1,128.44,270.22ZM92.5,279.46c1.13,3.76,2.51,6.8,3.42,10,3.39,12,5.2,24.29,7.41,36.49,1.71,9.46,3,18.91,8.12,27.3.2.33.51.78.41,1.05-1.41,3.9.48,5.95,3.9,7.23a4.77,4.77,0,0,1,1.18.85c3.31,2.67,7.49,3.54,11.23,5.34a1.83,1.83,0,0,0,2.18-.24,1,1,0,0,0,0-1.34c-1.4-2.09-1-4.67-2-6.89-1.72-4.05-1.11-8.51-2.4-12.74-1.55-5.06-3.48-10-4.51-15.25a11.64,11.64,0,0,0-2.16-5,39.68,39.68,0,0,1-4-6.79,200.4,200.4,0,0,1-11-25.66C102.28,287.64,98.08,283.5,92.5,279.46ZM91.83,246l.63-.5A40.19,40.19,0,0,1,89.6,235a14.59,14.59,0,0,0-1.85-5.75,143.69,143.69,0,0,1-11-22.09c-1.21-2.95-2.61-5.91-3.17-9-.8-4.45-2.74-8.42-4.38-12.52a4,4,0,0,0-3.44-2.33c-4.27-.28-8.55.35-12.83-.12-.67-.08-1.33.39-1.2,1,.6,2.58-1,5.19.18,7.75,2.16,4.84,3.11,10.13,5.64,14.83,2.34,4.34,2.44,9.66,5.92,13.49a33.34,33.34,0,0,1,6.12,10.17c1.41,3.55,3.67,5.33,6.8,7C81.67,240,86.71,243.11,91.83,246Zm81.66,77.24c0-.95,0-2,0-3.08-.05-.83.35-2-.59-2.36s-1.34.86-1.88,1.45a73,73,0,0,1-15.67,13.35,2.77,2.77,0,0,0-1.51,3.31c1.19,6.59,3.78,12.85,3.53,19.8-.18,5,1.93,9.88,2,15,0,2.33,1.08,4.58,3.62,4.39,3.32-.24,6.53.5,9.81.39,2.55-.09,3.06-1.22,2.81-3.45a159.22,159.22,0,0,1-1.37-18.73c0-7.25.58-14.6-.24-21.88C173.63,328.77,172.71,326.13,173.49,323.27Zm77-250.49c2.82.53,3.8-.27,3.32-2.55a32.76,32.76,0,0,0-6.77-14c-10.09-12.48-27.14-9.87-32.92,5-.66,1.7-2.09,4.14-1.45,5.1,1.48,2.23,1.08,5,2.85,7.1,1,1.19,1.21,1.94,3,1,1.16-.62,4.07-2.45,4.14,1.6,0,.78,1,.86,1.58.27s1.22-1.25,1.81-1.89,7.93-2,8.53-1.66a1.45,1.45,0,0,1,.23.19c1.53,1.36,2.81,1.76,3.63-.72.32-1,1.27-1.67,1.75-.32.77,2.21,2.35,1.77,3.94,1.74C246.47,73.59,248.64,71.93,250.46,72.78ZM67.6,261.62c3.64,4.74,7,8.89,10.11,13.26a35.23,35.23,0,0,1,5.57,10.81c1.87,6.75,2.63,13.7,4.1,20.51,2.5,11.57,4.28,23.24,6.09,34.93.67,4.35,1.2,9,6,11.28,1.21.58,2.32,1.4,3.52,2,.86.46,1.71,1.67,2.8.55.94-1,0-1.87-.53-2.57-3.61-4.63-4.18-10.3-5.55-15.72-2.57-10.21-2.82-20.73-4.52-31.05-2.1-12.69-4.76-25.2-13-35.64-1.29-1.65-1.77-4.07-3.93-4.89A69.6,69.6,0,0,0,67.6,261.62Zm61,72.72a61.63,61.63,0,0,0,2.65,9.83c1.54,5,1.35,10.27,2.8,15.33,1,3.47,3.41,6.82,2.12,10.81-.17.55.4,1.18,1,1.21,1.35.06,2.42.94,3.88.93a60,60,0,0,1,9.46.76c3,.48,3.35.38,2.59-2.53a59.9,59.9,0,0,1-1.79-18.52,11.25,11.25,0,0,0-.67-4.27c-1-2.87-2.08-5.72-2.79-8.66-.48-2-1.27-2.28-3-1.63-5.25,1.94-10.11,1-14.56-2.28C129.9,335.05,129.48,334.85,128.59,334.34Zm-40.07,2.14a6.09,6.09,0,0,0,0-1.13c-3-15.42-6-30.82-8.84-46.27a29.78,29.78,0,0,0-6.47-14.39c-2.32-2.73-4.27-5.78-6.6-8.51-2.81-3.31-5.63-7-10.85-3.9a5.51,5.51,0,0,1-2,.37c-.52.07-1.27-.32-1.42.51a1.31,1.31,0,0,0,.85,1.39c2.28,1,3.71,3.08,5.61,4.54s3.1,4.06,5.35,5.26a13.28,13.28,0,0,1,6.69,8.35c2.83,9.55,4.38,19.44,8,28.8,2.13,5.49,3.3,11.34,5.27,16.9C85.13,331.24,86.17,334.17,88.52,336.48ZM84.41,166.79c-.54.59-1.09.11-1.62.13-2.23.08-4.74-1.47-6.61,1.11-.42.58-1,.08-1.42-.42-.55-.72-.66-1.38.21-2,.49-.33,1.62-.21,1.21-1.23s-1.37-.58-2.08-.5c-6,.69-12.1.48-18.16.48-.66,0-1.46.19-1.91-.44-1.71-2.36-2.85-.45-3.87.62s-1.59,2.43-2.53,3.51c-.51.58-.92,1.07-.46,1.71s1.15.58,1.85.3a4.3,4.3,0,0,1,2.49-.41c4,.69,8.11,2.13,12.19.06a1.84,1.84,0,0,1,1.42,0c2.37,1.16,5.47-.4,7.51,2.06.19.24,1,.17,1.38,0a30.65,30.65,0,0,1,10.35-1.41c12.85,0,25.42-3.33,38.29-3.16,1.7,0,3.4-.57,5.16-.53,2,0,1.95-1.6,1.93-2.92s-1.18-1.38-2.15-1.23c-6.76,1.1-13.62.92-20.43,1.63-7.17.75-14.44,1.22-21.69.25-.88-.11-2.18-.61-2.65.42C82.25,166.11,84.44,165.66,84.41,166.79Zm211.9,36.73A114.16,114.16,0,0,0,293.78,181c-.63-3.22-2-4-5.76-3.19-2.94.62-1.1,2.75-1.22,4.22a17.77,17.77,0,0,0,.21,2.61c1.3,17.3,3.17,34.55,4.95,51.81.09.87-.29,2.34,1,2.38s1.08-1.39,1.22-2.29C295.83,225.59,296,214.55,296.31,203.52ZM114.62,129.85c-2.11-.64-2.59.22-2.79,1.24-.52,2.78-1.87,5.26-3,7.81-.71,1.68-.61,2.32,1.32,2.11,1.1-.11,1.85.17,2,1.48.17,1.51,2.56,1.74,2.21,3.82-.08.49,1.44.94,2.31-.15,2.09-2.63,3.72-2.71,6.46-.41.42.35.8.6,1.27.36a.85.85,0,0,0,.3-1.25c-2-3.41.76-1.9,1.89-1.72,1.29.2,2,.25,1.1-1.28-.38-.61-.79-1.24,0-1.77a1.52,1.52,0,0,1,1.89.18,22.7,22.7,0,0,0,1.72,1.55c1.69,1.08,3.17,1.82,4.28-.94,1.25-3.13,3-6.06,4.5-9.1,1.06-2.14.56-3.11-1.82-2.63-3.86.77-7.66-.42-11.5.21-1.88.3-4.55,1.37-5.4.92C118.76,128.89,116.26,130.21,114.62,129.85ZM31.25,251c-.1.33-.23.53-.19.67A118,118,0,0,0,44.2,278.19,4.86,4.86,0,0,0,46,279.57a76.47,76.47,0,0,0,10,4.79,6,6,0,0,1,2.75,2,39,39,0,0,1,5.19,8.39q7.62,17.18,15.34,34.29c.28.63.33,1.93,1.26,1.59,1.25-.44.23-1.52,0-2.18-1.91-5.6-3.55-11.34-6-16.71-2.25-4.95-2-10.92-6.76-15-1.65-1.39-1.86-4.69-2.87-7.08-1.49-3.54-3-6.8-7.09-8.26-2.61-.93-5-2.6-7.45-3.9-2.18-1.14-4.13-2.45-5.28-4.77-2.64-5.29-6.39-9.95-8.83-15.37A20.52,20.52,0,0,0,31.25,251Zm30.83-20.91a9.66,9.66,0,0,0-1.91-4.54,34.39,34.39,0,0,1-6-12.43,25.49,25.49,0,0,0-2.23-5.68c-3.32-6.65-5.67-13.51-5.27-21.1,0-.95.89-2.7-1-2.74s-2.55,1.07-2.62,3.06c-.1,3.11.1,6.2.28,9.29.64,10.89,3.33,21,10.91,29.39A14.31,14.31,0,0,0,62.08,230.13ZM210.31,378.67A12.14,12.14,0,0,0,215,379c5.46-.9,10.68-2.73,16.14-3.59,4.84-.77,8.92-2,9.11-8.45.13-4.76,2.75-9,4.9-13.36,3.89-7.89,5.64-16.71,9.5-24.83-1,.18-1.25.74-1.58,1.38-5.55,10.9-11.05,21.81-18,31.95a27.09,27.09,0,0,0-4.05,7.71,4.29,4.29,0,0,1-2.91,3.3c-3.52,1.13-6.38,4.56-10.66,3.1C215.75,379,212.62,377.41,210.31,378.67Zm157.5-81.78a1.69,1.69,0,0,0-2.25.45c-2.95,4.23-7.06,7.58-8.58,12.89-4.48,15.68-9.41,31.21-19.08,44.71-1,1.41-2.32,2.74-2.78,4.55a2.34,2.34,0,0,0,3-1.25c5.44-8.68,11.12-17.25,14.49-27,2.51-7.24,5.05-14.47,6.89-21.91a10,10,0,0,1,1.92-3.53C363.59,302.86,366.14,300.21,367.81,296.89ZM180.11,190.67c.83,2.61,2.93,4.33,4.73,6.24a2.8,2.8,0,0,0,4.35.12,6.21,6.21,0,0,0,2-5.75c-.08-.55-.7-.61-1.17-.61ZM118,205.91c1.78-2.93,2.2-5.7,3.15-8.28.69-1.89,1.06-3.19-1.8-3.32-1.54-.07-3-1.05-4.56-1.65-.53-.22-1.06-.67-1.58-.2s-.09,1.07.14,1.55C115.05,197.65,117,201.19,118,205.91ZM363.5,94.52c-4.61-7.2-11.13-12.29-17.73-17.3l-.5.53ZM386.12,233c-.42,2.34-2,4.32-1.95,6.8C385.71,237.82,385.77,235.37,386.12,233Zm-379-43.5c-.33,2.32-.48,4.6.81,6.65A12.35,12.35,0,0,0,7.12,189.51Zm354.54,153c3-2.33,3.58-3.64,2.85-6.05A16,16,0,0,0,361.66,342.47Zm35.71-77.73c1.54-1.79,3.18-3.54,3.06-6.13Zm5.31-88.94c-.06-.17.39-1.16-.59-1.74C401.65,175.07,402.68,175.61,402.68,175.8ZM329,61.25c-.13-.11-.26-.31-.4-.33s-.29.11-.07.28.29.17.43.26C328.94,61.39,329,61.32,329,61.25ZM254.14,22.72l.46-.19c-.12-.09-.26-.25-.37-.24a1.73,1.73,0,0,0-.56.24Zm72.77,36.53-.23-.14.16.37ZM365,95.42l-.61-.48c-.08.12-.27.32-.24.35a4.38,4.38,0,0,0,.56.58Zm31.87,170.73c-.05,0-.14,0-.16.07a.3.3,0,0,0-.05.24c.1.22.22.19.28-.07A.59.59,0,0,0,396.91,266.15Z"/><path class="cls-2" d="M226.94,2.9c1.14,1.32,2.84,1.64,4.32,2.31,2,.92,3.49,2.23,3.85,4.52,1.33,1.69,1.38,2.67-1.23,2.57-2-.08-3.94.9-6,.63-.57-.08-1.29,0-1.26.78s.76.73,1.32.74c2.31,0,4.54.71,6.89.64,3.26-.1,5.47,2.49,8.16,3.82s1.67,3.91,1,6.15c-1.48.93-3,.33-4.51.12-9.31-1.26-18.75-2-27.21,2.84-9.74,5.55-19.25,11.62-26.68,20.3a31,31,0,0,0-5.82,9.34c-1.24,3.34-1.28,3.3-4.51,1.41-5.2-3-10.27-6.24-16.05-8.15-5-1.65-9.9-3.4-15.17-3.87a9.09,9.09,0,0,1-2.72-.91c-4.67-2.06-9.46-3.53-14.64-3.13a1.49,1.49,0,0,1-1.65-.72,34,34,0,0,1,10.65-3.74c1.75-.29,2.07-1,1.61-2.5,1.34-.07.84,1.41,2,2.36,0-2.47-.5-4-2.31-5.07-.91-2.72.79-4.92,1.82-7,2.34-4.73,4.35-9.95,10.2-11.75a3.39,3.39,0,0,0,2.17-1.8l-.07,0,1.25-.72c.2-1.31,1.18-1.11,2.08-1.08,3.49.66,7,1.6,10-1.4a9.94,9.94,0,0,1,1.7-1c3.53-2.41,8.07-1.8,11.64-4,1.85-1.12,3.87-1,5.91-1.09,7.76-.17,15.52-.3,23.27-.66,1.72-.08,4.16.54,4.83-2.21a18.85,18.85,0,0,1,13.31,1.51C225.69,2.46,226.32,2.66,226.94,2.9Zm-44,21.56c-1.24-.68-1.81-1.26-2.68-.81-3.28,1.69-7.11,1.71-10.38,3.62a16.56,16.56,0,0,1-7,2.33c-5.54.33-10,3.1-14.57,5.63-.68.38-1.12,1-2,.4-2.22-1.54-3.32.38-4.56,1.62a1.36,1.36,0,0,0-.13,1.87,1.31,1.31,0,0,0,1.62.2c3.11-1.48,6.57-1.5,9.82-2.44a60.09,60.09,0,0,0,12.88-5.49A85.58,85.58,0,0,1,182.91,24.46Z"/><path class="cls-1" d="M274.22,384.71c-14.35,10.15-31,14.11-47.73,18.05a190.83,190.83,0,0,1-43.31,5.37c-13.4,0-26.79,0-40.18-1.44-11.36-1.22-22.62-2.8-33.8-5.07a6.17,6.17,0,0,1-2.63-1.14c3.34.23,6.69.31,10,.72,9.71,1.21,19.42,2.24,29.21,2.71,10.45.5,20.87,2.11,31.36,1.69,13.76-.54,27.58-.75,41.14-3.42,10.33-2,20.54-4.72,30.8-7.14,8.89-2.1,16.5-7,24.46-11.16Z"/><path class="cls-1" d="M211.78.66c-.67,2.75-3.11,2.13-4.83,2.21-7.75.36-15.51.49-23.27.66-2,.05-4.06,0-5.91,1.09-3.57,2.17-8.11,1.56-11.64,4a9.94,9.94,0,0,0-1.7,1c-3,3-6.51,2.06-10,1.4,5.74-2,11.88-3.19,17.12-6.08,8-4.41,16.55-4.5,25.12-4.88C201.69-.17,206.74.43,211.78.66Z"/><path class="cls-2" d="M274.22,384.71l-.68-.83c4.67-3.5,10.2-5.51,15.07-8.66,1.84-1.2,3.76-2.27,6-3.61C293.42,374,279.4,382.8,274.22,384.71Z"/><path class="cls-2" d="M13.74,160.55a21.75,21.75,0,0,1-1.59,5.75c-.27.69-.53,1.2-1.38,1-.33-.7-.44-1.54-1.31-1.87a1,1,0,0,1,.39-1.24c1.48.54,1.05-.89,1.19-1.35.67-2.27,1.16-4.59,1.9-7.67C13.87,157.48,12.08,159.29,13.74,160.55Z"/><path class="cls-2" d="M334.73,67.64c-2.1-1-2.41-3.69-4.5-4.75l8.28,3.83C337.38,67.54,335.77,66.44,334.73,67.64Z"/><path class="cls-2" d="M351.63,359.52c1.53-2.66,3.07-5.33,4.58-8,.27-.47.59-.88,1.09-.6s.3.79.1,1.27c-1.14,2.62-2.14,5.32-4.08,7.51Z"/><path class="cls-2" d="M407.24,249.53c1.17-1.92,1.08-4.57,3.34-5.89,1,1.54-.62,2.16-1.13,3.17-.68.57-.52,1.38-.6,2.13l0-.07-1.16,1.21Z"/><path class="cls-1" d="M407.74,250.08l1.16-1.21a5.46,5.46,0,0,1-1.9,4l.07.05c0-.59.05-1.18.07-1.77l-.06.09C407.87,251.18,407.59,250.51,407.74,250.08Z"/><path class="cls-2" d="M297,370.79c-.42.6-.87,1.16-1.79.93,0-1,.77-1.13,1.49-1.24A2.91,2.91,0,0,0,297,370.79Z"/><path class="cls-1" d="M408.85,248.94c.08-.75-.08-1.56.6-2.13A1.59,1.59,0,0,1,408.85,248.94Z"/><path class="cls-1" d="M407,252.89c.36.35.06.64-.08,1,0,0-.22,0-.24-.09a.56.56,0,0,1,.39-.81Z"/><path class="cls-1" d="M152.35,12.09l-1.25.72C151.18,12,151.92,12.31,152.35,12.09Z"/><path class="cls-2" d="M296.69,370.48c.18-.21.39-.39.61-.06,0,0-.2.24-.31.37A2.91,2.91,0,0,1,296.69,370.48Z"/><path class="cls-2" d="M275.6,52.63c-1.73-2.76-2.53-6-5-8.79A9.48,9.48,0,0,1,276.19,45c4.22,2.07,8.64,2.26,13.15,2.19a1.38,1.38,0,0,1,1.28.49c-1.09.42-1.22.65.11.8,5,.57,8.48,3.77,11.85,7.1a2.82,2.82,0,0,1,1.07,2.51c-1.09.06-2-.8-3.08.2,1.21,1.18,1.69,3.48,4.26,1.91.45-.27.73.46.84.94-.29.24-1.49,0-.53.92s2.19,1.88,3.33,2.77c2.92,2.3,5.85,4.56,8.78,6.84-.35,3.69,4.86,2.21,5.35,5.86.18,1.32,2.78,3.22,4,5.1.54.86.89,1.82,2.09,1.83.51-1.51-2.57-2.44-.3-3.93l1.79,1.7,0,0c.14.67.23,1.39,1.22,1.2l0,0c-.73.79,1,1.57,0,2.36l0,.58v1.14l-.82.81a1,1,0,0,1,.23.38c.48,1.08.09,2.82,1.7,3,2.32.3,4.62,1,7,.78-.11-1.66-2.6-1.39-2.31-3.2,1.29-.43,1.87.74,2.72,1.26,2,1.2,3.48,3.09,5.69,4,1.32,1.7,3.2,1.71,5.09,1.67l-.11,0c.36.9,1.12.7,1.82.64l-.06,0c.28.76.54.14.8,0,4.31,1.07,5.63,5.07,7.77,8.16a70.22,70.22,0,0,0,9.65,11.83c7.8,7.29,14.68,15.41,19.12,25.36,2.45,5.51,6.81,10.12,7.91,16.31.08.47.12.94.17,1.41-1.59,3.14-1.35,7.46-5.72,8.84-.27.09-.23.92-.9.94-.64-2.27-2.79-2.54-4.53-3.38l-.25.1-.21-.16c-1.2-2.53-2.86-4.32-6-3.89a8.65,8.65,0,0,1-3.95-.69,15.22,15.22,0,0,0-6.43-.58l-.11.19-.21-.06A3.12,3.12,0,0,0,369,160c-3-3.31-7.15-4.19-11.26-5-.91-.17-.26.83-.31,1.3a2.26,2.26,0,0,1-1.76-.44c0-.47,1-1,0-1.38s-1.79-.16-1.7,1.17c-5.27-.89-10.49-2-15.86-2.33-3.29-.22-6.51-1.51-9.76-2.32-4.95.83-9.32,4.35-14.71,3.14-.12,0-.3.21-.46.33a4.11,4.11,0,0,1-3.48-1.18c-.27-1.28-1.35-1.47-2.36-1.79-2.93-1-5.87-1.88-8.76-2.93a7.6,7.6,0,0,0-4-.36c-3.4.56-6.8,1.18-10.2,1.77-.4-9-.57-18-1.28-27-.51-6.41.07-12.73.38-19.08a2.7,2.7,0,0,1,1.35-2.65c1.09-.6,3.26-.39,2.49-2.75,0-.06.27-.25.43-.35,2.55-1.71,9.8-.63,12.23,1.24,3.7,2.85,7.66,5.35,10.94,8.71a.83.83,0,0,0,1.29,0c.68-.94.41-2.07.3-3.1-.07-.71-.57-1.4-1.38-1.09-1.28.5-1.68-.31-2.28-1.12-1-1.28-1.83-2.6-3.7-2.94-1-.17-1.56-1.33-2.05-2.33a15.9,15.9,0,0,0-2.23-3.73c-1.67-1.87-3.43-3.86-6.3-1.62-1.17.92-2.54.34-3.9.16s-3.72-1.76-3.45,1.73c0,.68-.9.91-1.63.87a1.38,1.38,0,0,1-1.42-1.5c-.07-1.39.18-2.83-.53-4.4-1.66,1.12-.53,3.68-2.39,4.11-1.58.36-3.34-.06-4.9.34-1.88.49-3.27.62-3.82-2.32-.87,2-1.58,3.57-3.34,3.8-.65.08-2.81.82-1.28-1.41.5-.71,0-1.8-.36-1.65-2.63,1-4.43-2.38-7.14-1.22,1,1.48.42,3.89,3.68,4.21-3.54,1.64-5.84-.19-8.29-.79-.09,0-.15-.15-.24-.16-3.63-.41-7.25-.84-10.88-1.19-.6-.06-1.3.35-1.24,1,.14,1.28.06,2.27-1.54,1.67-1.41-.52-3.51-.34-3.36-2.83.16-2.71.07-5.34-3.68-6,1.59-1.45,3.27-.3,4.63-1.39-.95-1-2.34-.23-3.21-.94-.44-.37-1-.69-1-1.34.08-.82.87-.59,1.38-.68s1.08-.24,1.37,0c2.91,2.2,5.52.7,8.27-.44,3.19-1.32,6.7-.81,10-1s6.81-1.77,10.17.07c.16.09.59-.07.77-.25,2.75-2.72,6.08-2.9,9.67-2.38s6.39-2,9.85-2.06a63.36,63.36,0,0,0,8.59-1.27c2.94-.52,5,2.19,7.51,3.34,1.37.63,2.35,2,4.21,2.13.14-1.27-.77-1.67-1.53-2.17-2.75-1.82-5.52-3.59-8.22-5.47-1.82-1.26-3.75-.67-5.23.11-2.9,1.54-6.06,1.19-9.06,1.69a3,3,0,0,1-3.64-3c-.25-6.12-1.07-12.15-3.53-17.85a53.67,53.67,0,0,0,15.37-2.18c.61-.2,1.51-.11,1.37-1.08s-1-.86-1.64-.76a45.71,45.71,0,0,0-6.52,1.22C281.6,51.64,278.29,50.66,275.6,52.63ZM344,108.27c2.63.79,4.64-.88,6.91-1.46.65-.17,1.46-.32,1.28-1.23s-.49-2-1.58-2.22c-4.24-.82-8.25,1.07-12.42,1.2-.44,0-.91.68-1.27,1.12-.53.67-.45,1.39.48,1.48C339.68,107.4,341.65,109.19,344,108.27ZM316.36,77.79c-.86-3-3.18-3.91-4.86-5.38-3.2-2.8-7-4.75-10.52-7-.6-.38-1.46-1-2.08-.23s.24,1.4.77,1.95.83,1.07,1.41.85c1.86-.7,2.26.75,3.09,1.79C307.27,73.62,311.81,75.28,316.36,77.79Zm-19.65-13.1c.41-.1,1.06,0,1.05-.61,0-.82-.73-1-1.41-1-.48,0-1,.07-1,.67C295.28,64.66,296,64.62,296.71,64.69Z"/><path class="cls-2" d="M236.11,218.1c.44-2.59-.14-5.6,2.89-7.14.84-.43.81-1.25.84-2a19.14,19.14,0,0,0-.57-5.48c-.37-1.51-1.19-2.87,1.16-4,1.48-.72.22-2.75-.21-4.22-.38-1.26-2.51-2.07-1.2-3.7,1.51-1.89,3.27-3.59,6-3.29,1.74.19,3.47.44,5.18.79a9,9,0,0,0,7.09-1.32,4.31,4.31,0,0,1,2.51-.47c2.18-.08,4.37.27,6.22-1.64,1.09-1.12,3-.42,4.62-1.1,2.53-1.08,5-2.34,7.64-3.23,2.43-.82,3.48-.15,3.41,2.69-.22,8.83-.43,17.67-.22,26.5q.7,29.25,1.91,58.5a11.64,11.64,0,0,1-2.69,8.62,84.8,84.8,0,0,0-13.05,20.18c-5.9,12.53-14.18,23.49-21.55,35.07-8,12.61-17,24.54-25.58,36.78a16.79,16.79,0,0,1-3.39,3.41c.18-3.08-1.27-6.31.78-9.16a12.43,12.43,0,0,0,2.18-7.05,141.38,141.38,0,0,1,9.77-44.43c1.83-4.73,1.77-9.91,3-14.78,1.08-4.22,0-9.12,3.91-12.51a3.27,3.27,0,0,0,.58-2.21c0-13.87.42-27.74-2.85-41.43a29.09,29.09,0,0,1,1-16.55v13.6c1.65-3.67,2.63-17.15,1.6-21.7C236.72,217.18,236.83,218,236.11,218.1Z"/><path class="cls-2" d="M181.42,115.23c2.72.78,4-2.24,6.43-2.53,2-.25,4-1.35,6-2,.54-.18,1.29-.52,1.65-.3,3.5,2.11,7,.49,10.46,0,2.15-.31,4,.39,6,.77,2.28.44,3.92,0,5.12-2.13,1-1.86,7-2.68,9.51-1.46a6,6,0,0,1-2.7.94c-.64.08-1.58,0-1.29,1.06.24.86,1.14.66,1.75.52a126.78,126.78,0,0,1,25.24-2.93c4.34-3,8.71-.48,13.06,0,1.75.17,3.29-.72,4.67-1.35a19.82,19.82,0,0,1,6.91-1.66c1.94-.15,4-.7,5.12-2.77.28-.53.63-1,1.35-.8a1.3,1.3,0,0,1,1.06,1.51c-.65,6.47.81,12.87.44,19.4a278.37,278.37,0,0,0-.3,28.16c.16,3.58.13,3.69-3.44,3.34a53,53,0,0,0-10.46.1,7.07,7.07,0,0,1-3.43-.36c-6.57-2.92-13.62-2.59-20.53-3-8.33-.49-16.68.18-25,.33q-18.63.34-37.26.63c-6.78.12-12.78,3-18.86,5.52-7.45,3-15,5.86-21.89,10.2a6.43,6.43,0,0,1-2.8.62c-3.78.31-3.77.1-2.92-3.55,1.61-6.88,3-13.82,4.43-20.74,1.06-5,3.47-9.61,4.88-14.53.25-.88,1.13-1,1.82-1.3,3.48-1.68,6.79-4.19,10.46-4.9,4.72-.93,8.17-4.4,13-5.16,2.45-.39,5.71-.89,7.75-3.33a3.63,3.63,0,0,1,2.43-.79,3.12,3.12,0,0,1,2.14.72C182.93,114.21,181,114.29,181.42,115.23Zm30.9,15.23c-3.4-.86-6.12-.79-8.55-2.08-.83-.45-2.42-.18-2.6,1-.12.81,1.19,1.6,2.09,1.6C206,131,208.76,132,212.32,130.46Zm61.37,11.76c1.35-.67,3.89.19,4.27-1.68s-1.77-1.07-2.83-1.15c-1.55-.13-3.36,0-3.63,1.92C271.32,142.49,272.78,142,273.69,142.22Zm-121.59,15c0-1.12-.69-1.12-1.23-1a3.77,3.77,0,0,0-2.88,1.71c-.67,1.29-3.65,1-2.68,2.49.83,1.25,2.8-.76,4.32-1.14C150.61,159,151.37,157.87,152.1,157.24Zm1.1-23.33c-1.56-.7-2.6-.81-3.49.23-.12.15-.1.67,0,.75C151,135.68,151.87,134.91,153.2,133.91Z"/><path class="cls-2" d="M312.08,171.6c1.64-2.52,4.67-2.67,7-3.62,3.36-1.35,6.66-2.86,10-4.23a11.77,11.77,0,0,1,6.74-.51c3.09.54,6.39-.61,9.37,1.14a2.08,2.08,0,0,0,1.39,0c2.52-.74,3.58.65,4.11,2.79a7.78,7.78,0,0,1,.26,1.72c.27,16.57-.37,33-7.41,48.46-.56,1.23-.89,2.56-1.4,3.82-1.46,3.6-3,7.13-6.34,9.51-6,4.21-7.13,11.33-10.14,17.3a74.22,74.22,0,0,0-2.83,7.64,21.7,21.7,0,0,1-5.09,7.92c-2.86,2.87-4.36,6.84-6.12,10.48-3.08,6.37-6.45,12.61-8.81,19.31a11.36,11.36,0,0,1-1.64,2.34c-2-11.69-4-23.09-6-34.5a5.64,5.64,0,0,1,.25-2.57c2.6-8.09,4.38-16.49,9-23.85a7.51,7.51,0,0,0,.8-3.08c1.16-9.89,4.36-19.39,5.74-29.24.54-3.9-.33-7.91.48-11.83a2.19,2.19,0,0,0,1.14-2.16,36.54,36.54,0,0,0-1.25-12.32C310.87,174.4,310.67,172.92,312.08,171.6Z"/><path class="cls-2" d="M382.91,173c3.13-.11,4.06,2.23,4.22,4.53.33,4.7,1.78,9.36-.09,14.24-.63,1.61.78,4.2.11,6.39s-.64,4.8-3.42,6.27c-1.75.92-2,3.6-2.07,5.53-.25,5.94-2.88,11.18-4.6,16.66-.73,2.35-.43,4.84-1.48,7A31,31,0,0,1,366.32,245c-5.93,4.52-12.41,8.32-17.72,13.66a10.84,10.84,0,0,0-2.41,2.85c-.55,1.13-1.28,2.19-2.82,2.12-1,0-1.41.92-2,1.48-4.67,4.2-7.28,9.87-10.4,15.12-2.23,3.73-5.73,6.45-7.47,10.57-1.22,2.9-2.75,5.62-3.47,8.75-1.25,5.38-2.88,10.65-6.09,15.3a13.62,13.62,0,0,0-1.42,3.8c-2.81,9.26-5.3,18.61-7.57,28-1.05,4.35-4.68,5.78-8.06,7.56-1.15.61-3.41.3-2.05,2.82.19.37-.82.61-1.33.79q-7.77,2.83-15.54,5.67c-.55.21-1.14.62-1.53,0s0-1.12.51-1.52c5.16-4.3,8.84-9.89,12.59-15.3,2.15-3.09,3-7.11,4.32-10.76,4.85-13.57,9.44-27.24,14.54-40.71,2.15-5.67,5.37-10.93,8-16.41,2.51-5.15,4.41-10.67,7.51-15.42,3.43-5.24,5.85-11.12,10-15.88a7.54,7.54,0,0,1,2.69-2.11c.44-.19,1.06-.32,1.26-.66,3.08-5.42,9.59-7.12,13.1-12.15,1.1-1.57,2.49-2.91,3.1-4.81q2.83-8.87,5.69-17.74a5.69,5.69,0,0,0,.12-3.44c-.11-.37-.38-.84-.25-1.11,2-4.3.12-9,1.48-13.4s1.94-9.07,2.94-13.61a2.44,2.44,0,0,0-.58-2.65,2.89,2.89,0,0,1-1-2c-.11-1.54-.72-3.17-.38-4.59.55-2.31,2.75,1,3.74-.76a6.68,6.68,0,0,0,5.26,2.87c1.74.07,3.29.84,4.94,1.17C378.33,172.89,380.5,174.74,382.91,173Z"/><path class="cls-2" d="M217.3,243.85c.23,2.58,2.49,5.26-.31,7.79-.34.31-.12,1.31-.07,2,.88,10.44,2.7,20.78,3.23,31.28a26.12,26.12,0,0,1-.26,7.07c-1.11,5.14-.42,10.44-1.2,15.6-.9,6,1,12.17-1.38,18.16-2,5-2.49,10.45-3,15.84-.6,6.81-2.08,13.51-2.61,20.37-.38,4.8-1.28,9.48-.11,14.26.31,1.25-.49,1.57-1.5,1.46-5.35-.59-10.76-.23-16.11-1.44-2.74-.61-5.79.09-8.7.26-3.45.21-4.71-.87-4.57-4.28.24-5.41.57-10.82-.87-16.13-.43-1.58.6-2.8.92-4.19.92-4-.17-7.91-.15-11.86,0-.67-.4-1.49-.14-2,2.85-5.46-.25-10.74-.45-16.1-.05-1.53-.57-2.86.47-4.37.89-1.3.41-3.05.3-4.57-.17-2.2.25-3.83,2.29-5.13a19.37,19.37,0,0,0,4.78-4.24c4.82-6.11,11.53-8.13,18.79-8.82,3.6-.34,6.11-2.2,7.13-5.24.49-1.44,0-3.61.08-5.46.61-8.91.93-17.86,1.91-26.73C216.31,252.88,215.77,248.28,217.3,243.85Z"/><path class="cls-2" d="M383.81,240.87c-4,6.4-7.91,12.75-12,19-2.83,4.3-4.82,8.79-5,14a8.65,8.65,0,0,1-2.55,5.75c-5,5.14-9,11.45-15,15.37-5.51,3.65-6.75,8.74-8.21,14.26-1.79,6.81-4.37,13.37-6.75,20a46.85,46.85,0,0,0-2.4,8.51c-.89,5.7-3.56,10.7-6.66,15.49-.26.41-.73.75-.82,1.18-.78,4.18-3.79,3.92-7,3.91a115.49,115.49,0,0,1-12.2-.43c-.71-.08-1.53-.15-1.66-.83s.52-1.28,1.19-1.46c4.47-1.23,5.77-5.28,7.28-8.77,3.22-7.4,3.92-15.55,6.08-23.24a154.94,154.94,0,0,1,13.37-33.7,11.38,11.38,0,0,1,4.31-4.15c4.77-2.61,7.23-7.2,10.25-11.28,2.38-3.23,5-6.29,7.37-9.46,4.35-5.75,10.15-9.68,15.66-14a7.31,7.31,0,0,1,2.1-1.41A19.64,19.64,0,0,0,381,242C381.52,241.27,382.07,240.32,383.81,240.87Z"/><path class="cls-2" d="M293.6,316.91c-1.19,3.2-1.37,6.14-3.2,8.55a7.59,7.59,0,0,0-1,2.69,127.34,127.34,0,0,1-5.57,16.23,5,5,0,0,1-2.73,3.21c-1.26.52-1.69,1.85-2.12,3-1.77,4.78-4.9,8.67-8.11,12.51a3.72,3.72,0,0,0-1,1.43c-.7,3.74-3.82,4.28-6.69,4.92a38.91,38.91,0,0,1-7.46,1.17c-2,.06-3.35,2.18-5.81,1.88-4.12-.51-4.34-.46-3.32-4.34.64-2.42.6-5,1.51-7.36a28.58,28.58,0,0,1,4.8-8.73c2.6-3.07,3.88-7.29,5.56-11.09a178.2,178.2,0,0,0,7.78-22.37c3.37-11.61,7.95-22.86,14.8-33,.86-1.28,1.65-2.6,2.84-4.48.79,5.87,1.61,11.14,2.17,16.44.62,5.89,1.1,11.79,2.52,17.55C289.53,319,289.68,319,293.6,316.91Z"/><path class="cls-2" d="M157.91,285.36c2.42,0,4.85,0,7.27,0a2.38,2.38,0,0,1,2.51,1.56c.42,1.36-.65,1.88-1.56,2.44-7.32,4.42-14.86,4.58-22.5,1-3.35-1.57-4.3-5-5.34-8.12-2-6-2-12.39-3.27-18.55-1.93-9.12-5.34-17.75-7.79-26.68a59.77,59.77,0,0,1-1.71-10c-.18-1.9-.06-3.87-1.08-5.64a4.27,4.27,0,0,1-.3-3.11c1.45-6.84,2.88-13.67,4.24-20.52.3-1.48,1-1.43,2.25-1.25,3.57.47,7.05,2,10.8.32,1.81-.8,3.67,1.22,3.59,4.08a5.41,5.41,0,0,0,1.29,3.68c2.5,3.26,4.13,7,6,10.61a4.33,4.33,0,0,1,.69,2.48,10.68,10.68,0,0,0,1,6.69c.85,1.55.56,3-1,4.35-1.8,1.55-2.53,3.87-3.23,6.1-3.26,10.22-3.62,20.8-3.89,31.38-.13,4.95.09,9.9,0,14.85q0,3.78,3.53,4.11c2.8.26,5.61.28,8.42.41Z"/><path class="cls-2" d="M128.44,270.22a139.57,139.57,0,0,0-21.72-16.69,16.28,16.28,0,0,0-3.36-1.69c-2.13-.68-3-2.26-3.61-4.2-1.92-6-4.23-12-5.54-18.22-.71-3.44-3.5-6-4.92-9.16-1.29-2.9-3.24-5.55-3.67-8.76s-2.13-5.82-3.8-8.36c-3.22-4.88-3.78-10.71-6.13-15.88-.47-1,.13-1.72,1.16-1.88s2.45-.61,3.44-.25c2.76,1,5.75.93,8.42,1.8a56.83,56.83,0,0,0,12.79,2.25c2.42.21,3.94.65,2.47,3.44-.51.95.06,1.68.41,2.45,1.31,2.82,2.65,5.62,4,8.44,1,2.07,2.54,4,1.48,6.56-.16.4.19,1.16.51,1.61,3.63,5,4,10.26,1.52,15.8-1.09,2.46-.6,4.5,1.86,5.54,6.65,2.79,6.69,9.7,9.39,14.89a23.2,23.2,0,0,1,2.45,10.63c0,3.51,2.49,6.53,2.88,10C128.47,269,128.44,269.32,128.44,270.22Z"/><path class="cls-2" d="M92.5,279.46c5.58,4,9.78,8.18,11.84,14.32a200.4,200.4,0,0,0,11,25.66,39.68,39.68,0,0,0,4,6.79,11.64,11.64,0,0,1,2.16,5c1,5.21,3,10.19,4.51,15.25,1.29,4.23.68,8.69,2.4,12.74,1,2.22.58,4.8,2,6.89a1,1,0,0,1,0,1.34,1.83,1.83,0,0,1-2.18.24c-3.74-1.8-7.92-2.67-11.23-5.34a4.77,4.77,0,0,0-1.18-.85c-3.42-1.28-5.31-3.33-3.9-7.23.1-.27-.21-.72-.41-1.05-5.11-8.39-6.41-17.84-8.12-27.3-2.21-12.2-4-24.51-7.41-36.49C95,286.26,93.63,283.22,92.5,279.46Z"/><path class="cls-2" d="M91.83,246c-5.12-2.92-10.16-6-15.4-8.7-3.13-1.62-5.39-3.4-6.8-7a33.34,33.34,0,0,0-6.12-10.17c-3.48-3.83-3.58-9.15-5.92-13.49-2.53-4.7-3.48-10-5.64-14.83-1.15-2.56.42-5.17-.18-7.75-.13-.57.53-1,1.2-1,4.28.47,8.56-.16,12.83.12a4,4,0,0,1,3.44,2.33c1.64,4.1,3.58,8.07,4.38,12.52.56,3.1,2,6.06,3.17,9a143.69,143.69,0,0,0,11,22.09A14.59,14.59,0,0,1,89.6,235a40.19,40.19,0,0,0,2.86,10.53Z"/><path class="cls-2" d="M173.49,323.27c-.78,2.86.14,5.5.44,8.18.82,7.28.28,14.63.24,21.88a159.22,159.22,0,0,0,1.37,18.73c.25,2.23-.26,3.36-2.81,3.45-3.28.11-6.49-.63-9.81-.39-2.54.19-3.61-2.06-3.62-4.39,0-5.11-2.13-10-2-15,.25-6.95-2.34-13.21-3.53-19.8a2.77,2.77,0,0,1,1.51-3.31A73,73,0,0,0,171,319.28c.54-.59.85-1.84,1.88-1.45s.54,1.53.59,2.36C173.53,321.25,173.49,322.32,173.49,323.27Z"/><path class="cls-2" d="M250.46,72.78c-1.82-.85-4,.81-6.34.86-1.59,0-3.17.47-3.94-1.74-.48-1.35-1.43-.63-1.75.32-.82,2.48-2.1,2.08-3.63.72a1.45,1.45,0,0,0-.23-.19c-.6-.34-8,1.13-8.53,1.66s-1.17,1.3-1.81,1.89-1.57.51-1.58-.27c-.07-4-3-2.22-4.14-1.6-1.81,1-2,.22-3-1-1.77-2.09-1.37-4.87-2.85-7.1-.64-1,.79-3.4,1.45-5.1,5.78-14.88,22.83-17.49,32.92-5a32.76,32.76,0,0,1,6.77,14C254.26,72.51,253.28,73.31,250.46,72.78Z"/><path class="cls-2" d="M67.6,261.62a69.6,69.6,0,0,1,10.7,3.5c2.16.82,2.64,3.24,3.93,4.89,8.19,10.44,10.85,22.95,13,35.64,1.7,10.32,1.95,20.84,4.52,31.05,1.37,5.42,1.94,11.09,5.55,15.72.54.7,1.47,1.6.53,2.57-1.09,1.12-1.94-.09-2.8-.55-1.2-.63-2.31-1.45-3.52-2-4.79-2.29-5.32-6.93-6-11.28-1.81-11.69-3.59-23.36-6.09-34.93-1.47-6.81-2.23-13.76-4.1-20.51a35.23,35.23,0,0,0-5.57-10.81C74.64,270.51,71.24,266.36,67.6,261.62Z"/><path class="cls-2" d="M128.59,334.34c.89.51,1.31.71,1.68,1,4.45,3.32,9.31,4.22,14.56,2.28,1.77-.65,2.56-.36,3,1.63.71,2.94,1.82,5.79,2.79,8.66a11.25,11.25,0,0,1,.67,4.27,59.9,59.9,0,0,0,1.79,18.52c.76,2.91.44,3-2.59,2.53a60,60,0,0,0-9.46-.76c-1.46,0-2.53-.87-3.88-.93-.63,0-1.2-.66-1-1.21,1.29-4-1.12-7.34-2.12-10.81-1.45-5.06-1.26-10.35-2.8-15.33A61.63,61.63,0,0,1,128.59,334.34Z"/><path class="cls-2" d="M88.52,336.48c-2.35-2.31-3.39-5.24-4.39-8.08-2-5.56-3.14-11.41-5.27-16.9-3.63-9.36-5.18-19.25-8-28.8a13.28,13.28,0,0,0-6.69-8.35c-2.25-1.2-3.31-3.71-5.35-5.26s-3.33-3.52-5.61-4.54a1.31,1.31,0,0,1-.85-1.39c.15-.83.9-.44,1.42-.51a5.51,5.51,0,0,0,2-.37c5.22-3.1,8,.59,10.85,3.9,2.33,2.73,4.28,5.78,6.6,8.51a29.78,29.78,0,0,1,6.47,14.39c2.84,15.45,5.88,30.85,8.84,46.27A6.09,6.09,0,0,1,88.52,336.48Z"/><path class="cls-2" d="M393.66,173.11c1.3,2,.95,5,4.13,5.78.45.1.65,1.51.88,2.34,2.34,8.17,2.13,16.46,1.18,24.8-1.18,10.3-2.5,20.58-4.58,30.74-1.07,5.26-4.78,9.18-7.19,13.76-.09.17-.69.07-1.52.13,4.47-7.76,4.57-16,4.84-24.33.39-12.11.42-24.25,1.49-36.34a49.81,49.81,0,0,0-.36-9c-.16-1.7-1.72-3.52.47-5.15.32-.24-.32-1.77-.52-2.7Z"/><path class="cls-2" d="M84.41,166.79c0-1.13-2.16-.68-1.59-1.89.47-1,1.77-.53,2.65-.42,7.25,1,14.52.5,21.69-.25,6.81-.71,13.67-.53,20.43-1.63,1-.15,2.14-.18,2.15,1.23s0,3-1.93,2.92c-1.76,0-3.46.56-5.16.53-12.87-.17-25.44,3.12-38.29,3.16A30.65,30.65,0,0,0,74,171.85c-.42.15-1.19.22-1.38,0-2-2.46-5.14-.9-7.51-2.06a1.84,1.84,0,0,0-1.42,0c-4.08,2.07-8.15.63-12.19-.06a4.3,4.3,0,0,0-2.49.41c-.7.28-1.41.32-1.85-.3s-.05-1.13.46-1.71c.94-1.08,1.54-2.48,2.53-3.51s2.16-3,3.87-.62c.45.63,1.25.44,1.91.44,6.06,0,12.12.21,18.16-.48.71-.08,1.71-.42,2.08.5s-.72.9-1.21,1.23c-.87.59-.76,1.25-.21,2,.38.5,1,1,1.42.42,1.87-2.58,4.38-1,6.61-1.11C83.32,166.9,83.87,167.38,84.41,166.79Z"/><path class="cls-2" d="M296.31,203.52c-.29,11-.48,22.07-2.14,33-.14.9,0,2.33-1.22,2.29s-.9-1.51-1-2.38c-1.78-17.26-3.65-34.51-4.95-51.81a17.77,17.77,0,0,1-.21-2.61c.12-1.47-1.72-3.6,1.22-4.22,3.72-.79,5.13,0,5.76,3.19A114.16,114.16,0,0,1,296.31,203.52Z"/><path class="cls-2" d="M114.62,129.85c1.64.36,4.14-1,6.74.43.85.45,3.52-.62,5.4-.92,3.84-.63,7.64.56,11.5-.21,2.38-.48,2.88.49,1.82,2.63-1.51,3-3.25,6-4.5,9.1-1.11,2.76-2.59,2-4.28.94a22.7,22.7,0,0,1-1.72-1.55,1.52,1.52,0,0,0-1.89-.18c-.74.53-.33,1.16,0,1.77,1,1.53.19,1.48-1.1,1.28-1.13-.18-3.86-1.69-1.89,1.72a.85.85,0,0,1-.3,1.25c-.47.24-.85,0-1.27-.36-2.74-2.3-4.37-2.22-6.46.41-.87,1.09-2.39.64-2.31.15.35-2.08-2-2.31-2.21-3.82-.15-1.31-.9-1.59-2-1.48-1.93.21-2-.43-1.32-2.11,1.08-2.55,2.43-5,3-7.81C112,130.07,112.51,129.21,114.62,129.85Zm2.84,11.08c-.73.32-2.15-.54-2.4,1.13-.16,1,.46,1.46,1.38,1.38,1.25-.12,2.78-.29,3-1.7C119.63,140.74,118.32,141.1,117.46,140.93Z"/><path class="cls-3" d="M31.25,251a20.52,20.52,0,0,1,5,6.37c2.44,5.42,6.19,10.08,8.83,15.37,1.15,2.32,3.1,3.63,5.28,4.77,2.49,1.3,4.84,3,7.45,3.9,4.06,1.46,5.6,4.72,7.09,8.26,1,2.39,1.22,5.69,2.87,7.08,4.79,4,4.51,10,6.76,15,2.44,5.37,4.08,11.11,6,16.71.23.66,1.25,1.74,0,2.18-.93.34-1-1-1.26-1.59q-7.69-17.13-15.34-34.29a39,39,0,0,0-5.19-8.39,6,6,0,0,0-2.75-2,76.47,76.47,0,0,1-10-4.79,4.86,4.86,0,0,1-1.84-1.38,118,118,0,0,1-13.14-26.48C31,251.57,31.15,251.37,31.25,251Z"/><path class="cls-2" d="M62.08,230.13a14.31,14.31,0,0,1-7.87-4.75C46.63,217,43.94,206.88,43.3,196c-.18-3.09-.38-6.18-.28-9.29.07-2,.88-3.09,2.62-3.06s1,1.79,1,2.74c-.4,7.59,2,14.45,5.27,21.1a25.49,25.49,0,0,1,2.23,5.68,34.39,34.39,0,0,0,6,12.43A9.66,9.66,0,0,1,62.08,230.13Z"/><path class="cls-2" d="M210.31,378.67c2.31-1.26,5.44.28,7.22-2.47,4.28,1.46,7.14-2,10.66-3.1a4.29,4.29,0,0,0,2.91-3.3,27.09,27.09,0,0,1,4.05-7.71c6.91-10.14,12.41-21,18-31.95.33-.64.54-1.2,1.58-1.38-3.86,8.12-5.61,16.94-9.5,24.83-2.15,4.36-4.77,8.6-4.9,13.36-.19,6.43-4.27,7.68-9.11,8.45-5.46.86-10.68,2.69-16.14,3.59A12.14,12.14,0,0,1,210.31,378.67Z"/><path class="cls-3" d="M289.9,361.35a321.47,321.47,0,0,1-30.75,18.13,59.3,59.3,0,0,1-11.47,4.07c-9.42,2.63-18.81,5.38-28.3,7.68s-19,2.85-28.61,3.1c-6,.15-12,.54-18-.31a17.31,17.31,0,0,1-3.93-.88c15.47.1,31.31-1.61,47.16-3.05,7.87-.71,15.39-3.58,23-5.84,4.16-1.24,8.4-2.2,12.58-3.39,8.12-2.3,14.88-7.34,22.18-11.29,3.82-2.07,7.49-4.44,11.15-6.79a12,12,0,0,1,5.06-1.95A.51.51,0,0,0,289.9,361.35Z"/><path class="cls-3" d="M382.91,173c-2.41,1.76-4.58-.09-6.81-.54-1.65-.33-3.2-1.1-4.94-1.17a6.68,6.68,0,0,1-5.26-2.87l-8.45-12.14c.05-.47-.6-1.47.31-1.3,4.11.81,8.25,1.69,11.26,5a3.12,3.12,0,0,1,.4,1.06c.21.23.38.35.32-.13a15.22,15.22,0,0,1,6.43.58,8.65,8.65,0,0,0,3.95.69c3.13-.43,4.79,1.36,6,3.89-2.71-.05-5.18-2.62-8.24-.61C380.1,167.58,381,170.59,382.91,173Zm-13-11.25c1.21,1.78,2.18,3.14,3.08,4.55,1,1.6,1.93,3.31,3.06,4.85a1.77,1.77,0,0,0,2,.73,1.24,1.24,0,0,0,.4-1.77C376.38,166.84,375.26,162.57,369.9,161.73Z"/><path class="cls-3" d="M367.81,296.89c-1.67,3.32-4.22,6-6.37,8.89a10,10,0,0,0-1.92,3.53c-1.84,7.44-4.38,14.67-6.89,21.91-3.37,9.77-9.05,18.34-14.49,27a2.34,2.34,0,0,1-3,1.25c.46-1.81,1.77-3.14,2.78-4.55,9.67-13.5,14.6-29,19.08-44.71,1.52-5.31,5.63-8.66,8.58-12.89A1.69,1.69,0,0,1,367.81,296.89Z"/><path class="cls-3" d="M10.75,235.15c.14-.34.29-.67.43-1-.19-.92-.38-1.84-.58-2.76-1.23-5.2-1.45-10.55-2.22-15.82l1,.13a105,105,0,0,0,4.34,22.92c2.81,8.93,6.33,17.6,9.29,26.47.9,2.69,2.73,5.08,4.14,7.6-.86,1.23-1.13-.79-2-.33a4.28,4.28,0,0,0,1.74,3.36c.11.31.16.69.65.62l0-.08c0,.42,0,.85.65.65l-.05-.07c-.23.63-.25,1.16.61,1.25l0-.07c-.64,1.4,1.44,2.24.66,4-2.88-3.25-4.8-6.87-6.91-10.35-3.66-6-4.67-13.06-7.12-19.55a86.34,86.34,0,0,1-4.72-16.64l.22-.11Zm.6.3a3.17,3.17,0,0,0-.17.73c0,.09.22.18.35.27a3.61,3.61,0,0,0,.26-.69C11.8,235.7,11.56,235.59,11.35,235.45Z"/><path class="cls-3" d="M305.67,61.1c-.11-.48-.39-1.21-.84-.94-2.57,1.57-3.05-.73-4.26-1.91,1.06-1,2-.14,3.08-.2a2.82,2.82,0,0,0-1.07-2.51c-3.37-3.33-6.84-6.53-11.85-7.1-1.33-.15-1.2-.38-.11-.8,6.13-.1,10.15,3.85,14.15,7.63,1.32,1.25,3,1.45,4.32,2.53v-.08c0,.44.14.66.6.6l0,0c-.07.49.32.66.63.89l0,.23.23,0c.23.31.4.69.89.63h0c2.09,3.21,5.05,5.64,7.6,8.43l0,.24.24,0,9,11.09,0,0v.59c-2.27,1.49.81,2.42.3,3.93-1.2,0-1.55-1-2.09-1.83-1.19-1.88-3.79-3.78-4-5.1-.49-3.65-5.7-2.17-5.35-5.86.45-1.24-.7-1.72-1.26-2.35-2.18-2.44-4.54-4.72-6.7-7.16C308.23,60.93,307.17,60.42,305.67,61.1Z"/><path class="cls-3" d="M41.48,300.21a118.59,118.59,0,0,1,13.71,25.21c2.44,5.88,5.14,11.7,10.74,15.47a7,7,0,0,1,1.35,1.85.83.83,0,0,0-.67,1.13c-6.94-4.55-10.68-11.48-13.91-18.78-.76-1.73-.86-3.86-3-4.77.57-.8.28-1.28-.59-1.54l0,.05c.43-.81,0-1.35-.61-1.78l.08,0c-.14-1.81-1.2-3.24-2.07-4.73-2.29-3.9-4.61-7.77-6-12.11Z"/><path class="cls-3" d="M142.43,377.68c-5.06-.16-9.53-2.39-14.09-4.19-10.83-4.24-21.25-9.26-30.33-16.7l.77-.81c12.87,8.23,26.79,14.36,40.9,20.06,2.91,1.17,6.44.84,9.69,1.2,0,.19,0,.38,0,.57l-5.87-.08C143.2,377.21,142.83,377.13,142.43,377.68Z"/><path class="cls-3" d="M298.5,48.58c-3.77-3.11-8.43-3.4-12.94-4.45a134.57,134.57,0,0,1-18-5.55c-2.16-.83-3.71-3.26-5.56-5,.88-1,1.6-.08,2.28.14a156.89,156.89,0,0,1,19.52,7.4,11.22,11.22,0,0,0,3.54,1.19,20,20,0,0,1,11.87,5.44Z"/><path class="cls-3" d="M62.62,325.19c1-.95,1.12.24,1.32.61.93,1.74,1.74,3.54,2.6,5.32-.92.05-1.33.65-.83,1.34,1.22,1.68,1.84,3.8,3.59,5.11l1.4,2.29a1.45,1.45,0,0,0,1.15,1.7l0,0a1.72,1.72,0,0,0,1.5,1.86l.08.13c.32,2.2,2.48,3.65,2.43,6-5.48-7.8-11.85-15-16.64-23.28-1.12-1.95-1.19-4.18-1.75-6.28,1.91.56,1.41-1,1.69-1.9,1.24.31,1.22,1.55,1.74,2.39-.11.77-.33,1.31-1.14.5-.15-.21-.29-.54-.59-.29-.08.06.11.45.18.69.54,1.52,1.13,2.94,3.21,2,.21.59,1.06,1.16,0,1.76-.3.14-.82,0-.8.53,0,.12.23.24.36.36Zm.43,2.46c.11.19.13.61.48.2,0,0-.23-.21-.35-.33s-.1-.65-.48-.22C62.69,327.31,62.93,327.53,63.05,327.65Zm1.22,1.7a1.55,1.55,0,0,0-.08-.23s-.1,0-.16-.05l.27.25c.13.23-.29.82.43.66Z"/><path class="cls-2" d="M407.5,243.47c1.44-7.4.59-14.88.79-22.32a177.81,177.81,0,0,0-1.25-25.8c-.67-5.74-2.52-11.35-4-17.78,1.93,2.82,1.95,5.48,2.62,7.85,3.93,13.92,3.75,28.26,3.76,42.55,0,4.26-.33,8.52-.42,12.78a6.21,6.21,0,0,1-.91,3.3Z"/><path class="cls-3" d="M317.38,54.75c-.45-.28-.62-1.15-1.44-.67h0L296.24,40.31c1.81-.06.27-1.32.68-1.88l.07-.07c8.87,5.88,18.37,10.94,25.34,19.32h-1.51a.53.53,0,0,0-.59-.59h0c0-.4-.16-.59-.57-.56l0,0C319.19,55.52,318.75,54.54,317.38,54.75Z"/><path class="cls-3" d="M244,25.06c.63-2.24,1.52-4.88-1-6.15s-4.9-3.92-8.16-3.82c-2.35.07-4.58-.61-6.89-.64-.56,0-1.29,0-1.32-.74s.69-.86,1.26-.78c2.06.27,4-.71,6-.63,2.61.1,2.56-.88,1.23-2.57.65.15,1.46.12,1.79.79,1.83,3.67,5.35,5.66,8.23,8.28A5.44,5.44,0,0,1,247,22.87C247,24.64,246.41,26.22,244,25.06Z"/><path class="cls-2" d="M43.21,292.26a1,1,0,0,1,1.3.28c3.19,5.95,8.88,10.27,11,16.89a2.69,2.69,0,0,1,.05.57c-.66.18-.54.78-.66,1.24a10.26,10.26,0,0,0-1.23-1.85,2,2,0,0,0-1.45-.55c-1,.11-.44,1-.81,1.58-1-1.48-3-2.32-2.92-4.65,0-.6.08-1.23-.66-1.51l0,.09a4.14,4.14,0,0,0-.62-2.72Q45.24,297,43.21,292.26Z"/><path class="cls-2" d="M180.11,190.67H190c.47,0,1.09.06,1.17.61a6.21,6.21,0,0,1-2,5.75,2.8,2.8,0,0,1-4.35-.12C183,195,180.94,193.28,180.11,190.67Z"/><path class="cls-2" d="M149.42,377.81c0-.19,0-.38,0-.57,15.82.67,31.65,1.41,47.49,1.41,2.32,0,4.64,0,7,.15a22.68,22.68,0,0,1-6.1,1.05c-13,.68-25.92-.9-38.87-1.56Z"/><path class="cls-3" d="M266,24.7a199.53,199.53,0,0,1,22.57,9.39c2.84,1.37,6.11,1.87,8.43,4.27l-.07.07c-.85.18-1.8,0-2.46.79A1.11,1.11,0,0,1,294,39c0-.66.22-1.44-.67-1.69s-1.54,0-1.69,1c-2.36-.11-4.23-1.52-6.35-2.29,1-.68.41-1.38-.18-1.68C280.77,32.19,276.42,30,272,28c-1.62-.73-1.33.69-1.35,1.6L269.55,29c.55-1.1.54-1.91-.88-2.37C267.61,26.28,266.36,26.07,266,24.7Z"/><path class="cls-3" d="M383.86,270c1.31.31,1.29-.93,1.64-1.54,2.54-4.44,5-8.92,7.48-13.41.33-.6.61-1.42,1.42-1s.27,1,0,1.5q-7.42,13.82-14.87,27.62c-.16.3-.53.49-1.3,1.17.79-3.8,2.76-6.4,4-9.31.36-.85,1.49-1.63.47-2.73l-.05.06c1.45-.24,1.71-.74,1.25-2.4Z"/><path class="cls-2" d="M118,205.91c-.95-4.72-2.91-8.26-4.65-11.9-.23-.48-.72-1-.14-1.55s1,0,1.58.2c1.51.6,3,1.58,4.56,1.65,2.86.13,2.49,1.43,1.8,3.32C120.16,200.21,119.74,203,118,205.91Z"/><path class="cls-2" d="M75.89,349.56c0-2.34-2.11-3.79-2.43-6,.76-.2,1,.44,1.28.87a69.34,69.34,0,0,0,20.57,21.47l-.44.48c-6.71-4-13.46-8-17.83-14.87C76.63,350.88,76,350.41,75.89,349.56Z"/><path class="cls-3" d="M164,388.22l31.45,1.24a88,88,0,0,1-31.29-.46C164.07,388.74,164,388.48,164,388.22Z"/><path class="cls-3" d="M327.38,63.31a.37.37,0,0,1,.25.38,3.68,3.68,0,0,0-.4.39c-.33,0-.86-.24-.91.19-.07.67.49.5.9.41h0c.38,2,2.12,3,3.45,4.25.75.68.7-.29.63-.81L334.77,70c-1.13,2,1.54,2,1.71,3.25A4.44,4.44,0,0,1,331.76,72c-4.68-5.11-10-9.63-13.84-15.51h1.71l0,0c-.09.47.1.66.57.56h0c-.07.46.12.67.59.59h0a1.67,1.67,0,0,0,1.75,1.74v0c-.11.49.06.7.58.57h0q-.22.79.57.57h0C324,62.74,325.29,63.59,327.38,63.31Z"/><path class="cls-3" d="M393.66,173.11l-1.18.06q-2.52-2.67-5.05-5.33c-.47-.49-1-1-.86-1.73,1.74.84,3.89,1.11,4.53,3.38.67,0,.63-.85.9-.94,4.37-1.38,4.13-5.7,5.72-8.84.55,2.36,1.3,4.73-.32,7a1,1,0,0,0-1.15.81c0,.06.37.25.57.37-.14,1.08.91,2.37-.57,3.21-.76-.42-1.38-.5-1.48.63C393.91,171.8,393.44,172.18,393.66,173.11Z"/><path class="cls-3" d="M284.45,149.94c3.4-.59,6.8-1.21,10.2-1.77a7.6,7.6,0,0,1,4,.36c2.89,1.05,5.83,2,8.76,2.93,1,.32,2.09.51,2.36,1.79L299.87,150c-3.26-1.09-6.43-1.19-9.35.95-1.45,1.05-3.16.71-4.75,1S284.52,150.85,284.45,149.94Z"/><path class="cls-2" d="M56.63,119.41c2.47-2.14,4.16-5,6.41-7.3a22.36,22.36,0,0,0,5-8.46,16.11,16.11,0,0,1-2,8.54c-2.06,3.75-5.55,5.66-9,7.68Z"/><path class="cls-3" d="M368.61,302c-5.52,6-6.73,14-10,21-.06.15-.24.24-1,.93,2.84-8.11,3.52-16.28,9.79-22.07Z"/><path class="cls-3" d="M312.08,171.6c-1.41,1.32-1.21,2.8-.69,4.5a36.54,36.54,0,0,1,1.25,12.32,2.19,2.19,0,0,1-1.14,2.16c-.82-5.49-1.11-11.05-2.49-16.48C308.41,171.76,310.85,172.2,312.08,171.6Z"/><path class="cls-3" d="M43.21,292.26q2,4.68,4.07,9.37a4.14,4.14,0,0,1,.62,2.72c-2-.62-2.45-2.57-3.06-4.07a17.59,17.59,0,0,0-8.55-9.63c0-.55,0-1.1.05-1.65A42.34,42.34,0,0,0,43.21,292.26Z"/><path class="cls-2" d="M363.5,94.52,345.27,77.75l.5-.53C352.37,82.23,358.89,87.32,363.5,94.52Z"/><path class="cls-3" d="M275.6,52.63c2.69-2,6-1,8.94-1.9a45.71,45.71,0,0,1,6.52-1.22c.63-.1,1.51-.15,1.64.76s-.76.88-1.37,1.08A53.67,53.67,0,0,1,276,53.53Z"/><path class="cls-3" d="M236.11,218.1c.72-.14.61-.92,1-1.33,1,4.55.05,18-1.6,21.7v-13.6c0-.93,0-1.87.05-2.81.67-.25.87-.68.51-1.32Z"/><path class="cls-2" d="M270.66,29.64c0-.91-.27-2.33,1.35-1.6,4.41,2,8.76,4.15,13.09,6.31.59.3,1.22,1,.18,1.68C280.05,34.73,275.38,32.12,270.66,29.64Z"/><path class="cls-2" d="M298.5,48.58l.75-.8A65.53,65.53,0,0,1,317.81,64.4l-.76.53c-2-1.42-2.95-4.15-5.61-4.86h0c.08-.74-.26-.89-.89-.63l-.23,0,0-.23c.38-.72.12-1-.63-.89l0,0c.28-.67,0-.82-.6-.6v.08c.31-1.58-1-2-1.92-2.7C304.31,52.89,301.39,50.75,298.5,48.58Z"/><path class="cls-3" d="M313.22,154.43c.16-.12.34-.35.46-.33,5.39,1.21,9.76-2.31,14.71-3.14C323.89,156.4,319.5,157.4,313.22,154.43Z"/><path class="cls-2" d="M266,24.7c.37,1.37,1.62,1.58,2.68,1.91,1.42.46,1.43,1.27.88,2.37-4.64-1.93-9.58-3.13-14.43-5.79a6.09,6.09,0,0,1,5.12.26c.88,1.33,2.32.68,3.48,1l-.07,0a1.09,1.09,0,0,0,1.78.07C265.74,24.27,265.92,24.35,266,24.7Z"/><path class="cls-3" d="M350.65,96.1c-1.89,0-3.77,0-5.09-1.67-1-2.83-3.79-3.81-5.66-5.73.05-.49.1-1,.14-1.47a95.68,95.68,0,0,1,10.09,7.59C350.48,95.12,351.26,95.37,350.65,96.1Z"/><path class="cls-2" d="M336.48,73.23c-.17-1.29-2.84-1.27-1.71-3.25a32.77,32.77,0,0,1,8.9,5.26c.43.38,1.43.7.72,1.53-.48.55-1.11.08-1.51-.32C341.09,74.68,338.43,74.66,336.48,73.23Z"/><path class="cls-3" d="M5.8,200.57c0,5.13,1.54,10.19.65,15.36-1.48-5-1.24-10.13-1.18-15.24Z"/><path class="cls-2" d="M9.37,215.69l-1-.13c-.57-6.17-1.71-12.32-1.31-18.54l1.06-.09Q8.74,206.31,9.37,215.69Z"/><path class="cls-2" d="M10.64,167.88c-.69,3.32-2.07,6.44-2.65,9.8a9,9,0,0,1-.85,3.57,47,47,0,0,1,2-13.46C9.61,167.91,10.1,168.22,10.64,167.88Z"/><path class="cls-2" d="M36.34,289c0,.55,0,1.1-.05,1.65-.48.78-1,.39-1.34-.06-1.25-1.88-3.12-3.32-3.92-5.52.55-.19.43-.72.57-1.11,1.84-1.26,2.44.09,3,1.44-.62.46-.77.92,0,1.38l-.08-.12c.32,1,.15,2.37,1.78,2.41Z"/><path class="cls-2" d="M340,87.23c0,.49-.09,1-.14,1.47-3-1.55-5.4-4.14-8.61-5.4l0,0c-.2-.61-.18-1.45-1.22-1.2l0,0c.56-.62-.18-1.07-.21-1.61l.57-.54c1.71,2.49,4.61,3.33,6.9,5C338.31,85.75,339.49,86.12,340,87.23Z"/><path class="cls-3" d="M154.08,390.56a118,118,0,0,1-13.94-.72l1.14-.84c3.21.66,6.49.15,9.72.52a7.38,7.38,0,0,1,3.07.57A.3.3,0,0,0,154.08,390.56Z"/><path class="cls-2" d="M368.61,302l-1.22-.14c2.21-2.9,3.26-6.61,5.91-9.2l.83.51Z"/><path class="cls-2" d="M49.75,320.32c2.09.91,2.19,3,3,4.77-.74-.38-.82,1.13-1.16.64-1.63-2.31-3.61-4.46-3.88-7.49-.06-.78.84-.68,1-1.22l-.08,0c-.54.84-.43,1.47.61,1.78l0-.05C48.89,319.47,49.32,319.9,49.75,320.32Z"/><path class="cls-2" d="M50.92,127.09c-1.68,3.26-2.22,7.35-6.46,8.7l0,0c2.51-2.65,3-6.76,6.31-8.84Z"/><path class="cls-2" d="M382.67,272.21c-.68.3-1,1.16-2.13,1.18.31-3.28,2.19-5.67,4-8.44,1.3,2.15-1.33,3.33-.7,5v-.09a2.73,2.73,0,0,0-1.25,2.4Z"/><path class="cls-2" d="M26.91,275.71a4.28,4.28,0,0,1-1.74-3.36c.84-.46,1.11,1.56,2,.33a18,18,0,0,1,3.27,5.74l-.81.49-.92-.9,0,.07c-.2-.41-.41-.83-.61-1.25l.05.07-.65-.65,0,.08C27.49,276,27.49,275.53,26.91,275.71Z"/><path class="cls-2" d="M154.08,390.56a.3.3,0,0,1,0-.47c2.83-.91,5.48.06,8.16.86C159.51,390.91,156.76,391.43,154.08,390.56Z"/><path class="cls-2" d="M289.9,361.35a.51.51,0,0,1,0-.52c2.48-1.22,4.91-2.72,7.85-1.06C295,359.45,292.61,361.23,289.9,361.35Z"/><path class="cls-2" d="M386.12,233c-.35,2.36-.41,4.81-1.95,6.8C384.13,237.33,385.7,235.35,386.12,233Z"/><path class="cls-2" d="M7.12,189.51a12.35,12.35,0,0,1,.81,6.65C6.64,194.11,6.79,191.83,7.12,189.51Z"/><path class="cls-2" d="M331.3,68.12c.07.52.12,1.49-.63.81-1.33-1.23-3.07-2.22-3.45-4.25l.87-.69C329.4,65.18,330.88,66.24,331.3,68.12Z"/><path class="cls-2" d="M141.28,389l-1.14.84c-2.63.09-4.94-1-7.2-2.31Z"/><path class="cls-2" d="M69.3,337.57c-1.75-1.31-2.37-3.43-3.59-5.11-.5-.69-.09-1.29.83-1.34C67.65,333.19,69,335.14,69.3,337.57Z"/><path class="cls-2" d="M361.66,342.47a16,16,0,0,1,2.85-6.05C365.24,338.83,364.65,340.14,361.66,342.47Z"/><path class="cls-2" d="M397.37,264.74l3.06-6.13C400.55,261.2,398.91,263,397.37,264.74Z"/><path class="cls-2" d="M59.19,318.1c-.28.88.22,2.46-1.69,1.9-1-1.45-2-2.89-.69-4.67L58,316.51l-.07-.1a1.33,1.33,0,0,0,.64,1.27l-.08-.1c.1.33.22.65.66.63Z"/><path class="cls-2" d="M358,325.18a14.77,14.77,0,0,1-2.76,6.47l0,.05a12.87,12.87,0,0,1,1.91-6.45Z"/><path class="cls-2" d="M98.78,356l-.77.81c-2-.75-3.15-2.41-4.47-4C95.76,353.08,97.19,354.66,98.78,356Z"/><path class="cls-2" d="M326.43,74.21,330.51,80l-.57.54c-.57-.14-.66-1.4-1.59-.68l0,0c.43-2.32-2-3.2-2.52-5.07Z"/><path class="cls-2" d="M5.8,200.57l-.53.12c-.33-1.76-.93-3.49-.48-6.05C5.59,197,6.18,198.69,5.8,200.57Z"/><path class="cls-3" d="M137,33.34c1.81,1,2.33,2.6,2.31,5.07-1.12-.95-.62-2.43-2-2.36a.89.89,0,0,1-.33-.39,1,1,0,0,0-.25-1.27Z"/><path class="cls-2" d="M81.83,332.25c.77,1.61,1.61,3.22,1,5.39a11.83,11.83,0,0,1-2.28-5.34Z"/><path class="cls-2" d="M327.38,63.31c-2.09.28-3.35-.57-3.65-2.71l.65-.63A7.69,7.69,0,0,1,327.38,63.31Z"/><path class="cls-2" d="M164,388.22c.05.26.1.52.16.78l-4.22-.53C161.25,387.61,162.59,387.27,164,388.22Z"/><path class="cls-2" d="M62.59,323.42c-2.08.91-2.67-.51-3.21-2l.41-.4c.81.81,1,.27,1.14-.5A4.67,4.67,0,0,1,62.59,323.42Z"/><path class="cls-2" d="M319.32,68.78l-.24,0,0-.24c.58-.71-.08-1.22-.28-1.81l.63-.65a12.64,12.64,0,0,1,2.75,3.13l-.58.6C320.8,69.46,320.57,68,319.32,68.78Z"/><path class="cls-2" d="M50.8,127a5.13,5.13,0,0,1,2.73-4.22,3.44,3.44,0,0,1,.4.37,8.38,8.38,0,0,1-3,4Z"/><path class="cls-2" d="M74.43,353.54a8.37,8.37,0,0,1-2.34-3.77c1.45.68,2.09,2,2.81,3.34Z"/><path class="cls-2" d="M66.61,343.87a.83.83,0,0,1,.67-1.13c1.44.6,1.93,1.93,2.51,3.2l-.36.38Z"/><path class="cls-2" d="M41.48,300.21l-.91,0c-1.08-.6-1.07-1.69-1.33-3.37C40.32,298.19,41.34,298.86,41.48,300.21Z"/><path class="cls-2" d="M294.46,39.22c.66-.76,1.61-.61,2.46-.79-.41.56,1.13,1.82-.68,1.88A2.3,2.3,0,0,1,294.46,39.22Z"/><path class="cls-2" d="M404.88,250.76c0,1.6-1.14,2.75-1.64,4.15l-.56-.5c.53-1.35.61-2.95,2.07-3.8Z"/><path class="cls-2" d="M324,71.25a8.9,8.9,0,0,1,2.39,3l-.62.59-2.29-2.94Z"/><path class="cls-2" d="M291.63,38.32c.15-1,.82-1.27,1.69-1s.7,1,.67,1.69A4.1,4.1,0,0,1,291.63,38.32Z"/><path class="cls-2" d="M10.6,231.38c.2.92.39,1.84.58,2.76C9.07,233.62,9.84,232.5,10.6,231.38Z"/><path class="cls-3" d="M354,155.61c-.09-1.33.81-1.48,1.7-1.17s0,.91,0,1.38Z"/><path class="cls-3" d="M263.72,24.45c-1.16-.32-2.6.33-3.48-1C261.45,23.62,262.72,23.55,263.72,24.45Z"/><path class="cls-2" d="M101,369.5A4.51,4.51,0,0,1,98,368a4.77,4.77,0,0,1,3,1.51Z"/><path class="cls-2" d="M319.63,56.51h-1.71c-.41-.52-.86-1-.54-1.76C318.75,54.54,319.19,55.52,319.63,56.51Z"/><path class="cls-3" d="M10.64,167.88c-.54.34-1,0-1.54-.09l.36-2.31c.87.33,1,1.17,1.31,1.87A1.25,1.25,0,0,0,10.64,167.88Z"/><path class="cls-2" d="M402.68,175.8c0-.19-1-.73-.59-1.74C403.07,174.64,402.62,175.63,402.68,175.8Z"/><path class="cls-2" d="M53.53,122.77a2.8,2.8,0,0,1,2-2.13.94.94,0,0,1,.15.28c0,1.22-.88,1.71-1.75,2.22A3.44,3.44,0,0,0,53.53,122.77Z"/><path class="cls-3" d="M36.36,289.07c-1.63,0-1.46-1.4-1.78-2.41C36.47,286.52,35.93,288.15,36.36,289.07Z"/><path class="cls-2" d="M95.31,365.91a4.86,4.86,0,0,1,2.28,1.67c-1.24.22-1.9-.68-2.72-1.19Z"/><path class="cls-2" d="M403.24,254.91c-.13.25-.19.58-.38.74-.49.4-.26,2-1.33,1.2-.92-.64.34-1.19.64-1.78a3.89,3.89,0,0,1,.51-.66Z"/><path class="cls-2" d="M73.38,343.44a1.72,1.72,0,0,1-1.5-1.86C73.16,341.57,73.5,342.32,73.38,343.44Z"/><path class="cls-2" d="M75.72,354.05c.45.66,1.31,1.08,1.21,2.14-1-.17-1.32-1-1.71-1.67Z"/><path class="cls-2" d="M322.55,59.42a1.67,1.67,0,0,1-1.75-1.74h1.53l.23.06V58C322.57,58.46,322.56,58.94,322.55,59.42Z"/><path class="cls-3" d="M58,316.51l-1.17-1.18c-.19-.48-.38-1-.56-1.44l.82-.65C57.53,314.28,58.83,315.1,58,316.51Z"/><path class="cls-2" d="M396.82,167.88c-.2-.12-.59-.31-.57-.37a1,1,0,0,1,1.15-.81C397.92,167.44,397.73,167.84,396.82,167.88Z"/><path class="cls-2" d="M71.85,341.56a1.45,1.45,0,0,1-1.15-1.7C71.79,340,72.12,340.54,71.85,341.56Z"/><path class="cls-3" d="M31.6,284c-.14.39,0,.92-.57,1.11-.29-.61-1.24-1.22-.57-1.87S31.31,283.54,31.6,284Z"/><path class="cls-2" d="M70.76,347.33a2.42,2.42,0,0,1,1.13,1.94,2.09,2.09,0,0,1-1.5-1.54C70.52,347.6,70.64,347.47,70.76,347.33Z"/><path class="cls-2" d="M136.75,34.39a1,1,0,0,1,.25,1.27C136,35.42,136.05,35,136.75,34.39Z"/><path class="cls-2" d="M394.77,171.72c.1-1.13.72-1.05,1.48-.63C395.94,171.72,395.53,172.13,394.77,171.72Z"/><path class="cls-2" d="M236.06,220.74c.36.64.16,1.07-.51,1.32C235,221.34,235.38,221,236.06,220.74Z"/><path class="cls-3" d="M81.83,332.25l-1.27.05c-.13-.5-.63-1.22,0-1.43C81.66,330.54,81.56,331.65,81.83,332.25Z"/><path class="cls-3" d="M358,325.18l-.81.07c.21-.46.08-1.19.91-1.15Z"/><path class="cls-2" d="M329,61.25c0,.07,0,.14,0,.21-.14-.09-.29-.16-.43-.26s-.19-.32.07-.28S328.84,61.14,329,61.25Z"/><path class="cls-2" d="M70.39,347.73l-1-1.41.36-.38c.32.47.65.93,1,1.39C70.64,347.47,70.52,347.6,70.39,347.73Z"/><path class="cls-3" d="M322.55,59.42c0-.48,0-1,0-1.44l1.54,1.71a2.17,2.17,0,0,0-.37.31l-.59,0h0c0-.37-.19-.58-.58-.57Z"/><path class="cls-2" d="M142.43,377.68c.4-.55.77-.47,1.12.05A.68.68,0,0,1,142.43,377.68Z"/><path class="cls-2" d="M254.14,22.72l-.47-.19a1.73,1.73,0,0,1,.56-.24c.11,0,.25.15.37.24Z"/><path class="cls-3" d="M265.43,24.48a1.09,1.09,0,0,1-1.78-.07A2,2,0,0,1,265.43,24.48Z"/><path class="cls-2" d="M408.06,244.05c-.27.44-.38,1.48-.79,1.23-.75-.45-.26-1.24.23-1.81Z"/><path class="cls-3" d="M352.36,96.69c-.7.06-1.46.26-1.82-.64C351.5,95.27,352,95.78,352.36,96.69Z"/><path class="cls-2" d="M326.91,59.25l-.07.23-.16-.37Z"/><path class="cls-2" d="M365,95.42l-.29.45a4.38,4.38,0,0,1-.56-.58s.16-.23.24-.35Z"/><path class="cls-2" d="M57,119.87a1.19,1.19,0,0,1-1.36,1,1,1,0,0,0-.15-.27l1.1-1.23Z"/><path class="cls-3" d="M407.74,250.08c-.15.43.13,1.1-.66,1.18-.61-.64.25-1.14.16-1.73Z"/><path class="cls-2" d="M322.14,69.17l1,1.12-.7.36-.86-.88Z"/><path class="cls-2" d="M355.21,331.65c-.08.27-.17.54-.25.8-.08-.1-.23-.2-.22-.3,0-.29.14-.53.51-.46Z"/><path class="cls-2" d="M44.46,135.79l-.65.45-.11-.38.79,0Z"/><path class="cls-2" d="M396.91,266.15a.59.59,0,0,1,.07.24c-.06.26-.18.29-.28.07a.3.3,0,0,1,.05-.24S396.86,266.17,396.91,266.15Z"/><path class="cls-2" d="M74.9,353.11c.28.31.55.63.82.94l-.5.47-.79-1Z"/><path class="cls-3" d="M34.66,286.78c-.78-.46-.63-.92,0-1.38C35,285.85,35.43,286.31,34.66,286.78Z"/><path class="cls-3" d="M56.48,312.08c.2.38.39.77.59,1.16l-.82.65-.57-1.17Z"/><path class="cls-2" d="M101.57,370.18l.66.23c-.07,0-.17.1-.21.07a4.62,4.62,0,0,1-.41-.34Z"/><path class="cls-3" d="M47.86,304.26c.74.28.67.91.66,1.51C47.9,305.44,47.28,305.12,47.86,304.26Z"/><path class="cls-3" d="M54.93,311.24c.12-.46,0-1.06.66-1.24.11.32.23.63.34.95l-.77.7A.54.54,0,0,1,54.93,311.24Z"/><path class="cls-3" d="M55.68,312.72l-.52-1.07.77-.7c.19.38.37.75.55,1.13Z"/><path class="cls-3" d="M58.55,317.68a1.33,1.33,0,0,1-.64-1.27c.34-.13.66-.2.89.18A.71.71,0,0,1,58.55,317.68Z"/><path class="cls-2" d="M404.75,250.61l.32-.22c-.06.13-.13.25-.19.37Z"/><path class="cls-2" d="M10.75,235.15l.06.24-.22.11-.35-.34Z"/><path class="cls-2" d="M316,54.08h0Z"/><path class="cls-2" d="M30.56,279.11c.1.19.32.51.27.57-.32.36-.56.09-.77-.18Z"/><path class="cls-3" d="M59.13,318.21c-.44,0-.56-.3-.66-.63Q59.46,317.21,59.13,318.21Z"/><path class="cls-2" d="M318.8,65.36c.19.23.39.46.59.68l-.63.65-.54-.59Z"/><path class="cls-2" d="M323.39,70.55l.65.7-.52.61-.53-.62Z"/><path class="cls-3" d="M324.38,60l-.65.63h0l0-.59a2.17,2.17,0,0,1,.37-.31A.33.33,0,0,1,324.38,60Z"/><path class="cls-2" d="M30.06,279.5l-.46-.59.81-.49.15.69Z"/><path class="cls-2" d="M77.6,357.39c-.3-.17-.6-.36-.22-.71,0,0,.35.25.54.38C77.81,357.17,77.71,357.29,77.6,357.39Z"/><path class="cls-2" d="M78.12,358l-.52-.64c.11-.1.21-.22.32-.33.15.25.3.49.44.74A2.61,2.61,0,0,1,78.12,358Z"/><path class="cls-2" d="M78.75,358.57l-.63-.54a2.61,2.61,0,0,0,.24-.23l.52.65Z"/><path class="cls-2" d="M78.88,358.45c.24.08.57.23.32.46s-.38-.1-.45-.34Z"/><path class="cls-2" d="M318.18,64.76l.62.6-.58.74-.58-.58Z"/><path class="cls-2" d="M317.81,64.4a.72.72,0,0,1,.37.36l-.54.76-.59-.59Z"/><path class="cls-2" d="M101.61,370.14l-.57-.64,0,0,.57.64Z"/><path class="cls-3" d="M328.09,64l-.87.69h0v-.6a3.68,3.68,0,0,1,.4-.39A.49.49,0,0,1,328.09,64Z"/><path class="cls-2" d="M323.12,70.29a1,1,0,0,1,.27.26c-.14.23-.27.46-.4.69l-.57-.59Z"/><polygon class="cls-2" points="324.9 57.09 324.99 57.16 324.92 57.09 324.9 57.09"/><polygon class="cls-2" points="324.92 57.09 324.83 57.03 324.9 57.09 324.92 57.09"/><path class="cls-3" d="M353.1,96.64c-.26.15-.52.77-.8,0A.49.49,0,0,1,353.1,96.64Z"/><path class="cls-1" d="M182.91,24.46a85.58,85.58,0,0,0-17,6.93A60.09,60.09,0,0,1,153,36.88c-3.25.94-6.71,1-9.82,2.44a1.31,1.31,0,0,1-1.62-.2,1.36,1.36,0,0,1,.13-1.87c1.24-1.24,2.34-3.16,4.56-1.62.89.62,1.33,0,2-.4,4.6-2.53,9-5.3,14.57-5.63a16.56,16.56,0,0,0,7-2.33c3.27-1.91,7.1-1.93,10.38-3.62C181.1,23.2,181.67,23.78,182.91,24.46Z"/><path class="cls-3" d="M344,108.27c-2.37.92-4.34-.87-6.6-1.11-.93-.09-1-.81-.48-1.48.36-.44.83-1.1,1.27-1.12,4.17-.13,8.18-2,12.42-1.2,1.09.21,1.39,1.28,1.58,2.22s-.63,1.06-1.28,1.23C348.66,107.39,346.65,109.06,344,108.27Z"/><path class="cls-3" d="M316.36,77.79c-4.55-2.51-9.09-4.17-12.19-8.05-.83-1-1.23-2.49-3.09-1.79-.58.22-1-.45-1.41-.85s-1.36-1.16-.77-1.95,1.48-.15,2.08.23c3.55,2.28,7.32,4.23,10.52,7C313.18,73.88,315.5,74.75,316.36,77.79Z"/><path class="cls-1" d="M305.67,61.1c1.5-.68,2.56-.17,3.62,1,2.16,2.44,4.52,4.72,6.7,7.16.56.63,1.71,1.11,1.26,2.35-2.93-2.28-5.86-4.54-8.78-6.84-1.14-.89-2.26-1.8-3.33-2.77S305.38,61.34,305.67,61.1Z"/><path class="cls-1" d="M331.29,83.3c3.21,1.26,5.58,3.85,8.61,5.4,1.87,1.92,4.7,2.9,5.66,5.73-2.21-.89-3.71-2.78-5.69-4-.85-.52-1.43-1.69-2.72-1.26l0,0c-1.47-1.94-3.13-3.56-5.81-3.48h0C332.3,84.87,330.56,84.09,331.29,83.3Z"/><path class="cls-1" d="M337.15,89.19c-.29,1.81,2.2,1.54,2.31,3.2-2.4.27-4.7-.48-7-.78-1.61-.22-1.22-2-1.7-3h0a7.38,7.38,0,0,0,3.79,2.68c.25.23.53.53.86.2s0-.58-.23-.82A6.23,6.23,0,0,0,331.9,88a.44.44,0,0,1-.19-.41l.53-.57c1.68.58,2.76,2.55,4.88,2.12Z"/><path class="cls-3" d="M296.71,64.69c-.67-.07-1.43,0-1.39-1,0-.6.55-.7,1-.67.68,0,1.38.23,1.41,1C297.77,64.73,297.12,64.59,296.71,64.69Z"/><path class="cls-1" d="M328.35,79.9c.93-.72,1,.54,1.59.68,0,.54.77,1,.21,1.61l-1.79-1.7C328.36,80.29,328.35,80.1,328.35,79.9Z"/><path class="cls-1" d="M330.11,82.15c1-.25,1,.59,1.22,1.2C330.34,83.54,330.25,82.82,330.11,82.15Z"/><path class="cls-3" d="M331.71,87.6a.44.44,0,0,0,.19.41l-1.34.23-.05,0,.82-.81A.42.42,0,0,0,331.71,87.6Z"/><path class="cls-1" d="M331.71,87.6a.42.42,0,0,1-.38-.22V86.24l0,0,.95.77Z"/><path class="cls-1" d="M330.74,88.57a1,1,0,0,0-.23-.38l.05,0,0,.23.21.1Z"/><path class="cls-1" d="M369.74,160.89c.06.48-.11.36-.32.13l.21.06Z"/><path class="cls-1" d="M331.33,86.24l0-.58h0c0,.19,0,.39,0,.59Z"/><path class="cls-1" d="M212.32,130.46c-3.56,1.5-6.33.52-9.06.52-.9,0-2.21-.79-2.09-1.6.18-1.18,1.77-1.45,2.6-1C206.2,129.67,208.92,129.6,212.32,130.46Z"/><path class="cls-1" d="M273.69,142.22c-.91-.22-2.37.27-2.19-.91.27-1.89,2.08-2.05,3.63-1.92,1.06.08,3.23-.74,2.83,1.15S275,141.55,273.69,142.22Z"/><path class="cls-1" d="M152.1,157.24c-.73.63-1.49,1.77-2.47,2-1.52.38-3.49,2.39-4.32,1.14-1-1.48,2-1.2,2.68-2.49a3.77,3.77,0,0,1,2.88-1.71C151.41,156.12,152.07,156.12,152.1,157.24Z"/><path class="cls-1" d="M153.2,133.91c-1.33,1-2.22,1.77-3.46,1-.13-.08-.15-.6,0-.75C150.6,133.1,151.64,133.21,153.2,133.91Z"/><path class="cls-1" d="M117.46,140.93c.86.17,2.17-.19,2,.81-.24,1.41-1.77,1.58-3,1.7-.92.08-1.54-.39-1.38-1.38C115.31,140.39,116.73,141.25,117.46,140.93Z"/><path class="cls-1" d="M369.9,161.73c5.36.84,6.48,5.11,8.58,8.36a1.24,1.24,0,0,1-.4,1.77,1.77,1.77,0,0,1-2-.73c-1.13-1.54-2-3.25-3.06-4.85C372.08,164.87,371.11,163.51,369.9,161.73Z"/><path class="cls-2" d="M11.35,235.45c.21.14.45.25.44.31a3.61,3.61,0,0,1-.26.69c-.13-.09-.35-.18-.35-.27A3.17,3.17,0,0,1,11.35,235.45Z"/><path class="cls-1" d="M26.91,275.71c.58-.18.58.25.65.62C27.07,276.4,27,276,26.91,275.71Z"/><path class="cls-1" d="M28.11,276.83c.2.42.41.84.61,1.25C27.86,278,27.88,277.46,28.11,276.83Z"/><path class="cls-1" d="M27.51,276.25l.65.65C27.54,277.1,27.53,276.67,27.51,276.25Z"/><path class="cls-1" d="M322.42,70.65l.57.59.53.62,2.29,2.94c.48,1.87,2.95,2.75,2.52,5.07l-9-11.09c1.25-.81,1.48.68,2.24,1Z"/><path class="cls-1" d="M317.05,64.93l.59.59.58.58.54.59c.2.59.86,1.1.28,1.81-2.55-2.79-5.51-5.22-7.6-8.43C314.1,60.78,315,63.51,317.05,64.93Z"/><path class="cls-1" d="M310.57,59.44c.63-.26,1-.11.89.63C311,60.13,310.8,59.75,310.57,59.44Z"/><path class="cls-1" d="M309.67,58.29c.75-.09,1,.17.63.89C310,59,309.6,58.78,309.67,58.29Z"/><path class="cls-1" d="M309.09,57.72c.63-.22.88-.07.6.6C309.23,58.38,309,58.16,309.09,57.72Z"/><path class="cls-1" d="M49.2,318.83c-1-.31-1.15-.94-.61-1.78C49.25,317.48,49.63,318,49.2,318.83Z"/><path class="cls-1" d="M49.75,320.32c-.43-.42-.86-.85-.59-1.54C50,319,50.32,319.52,49.75,320.32Z"/><path class="cls-2" d="M62.62,325.19l-.45.88c-.13-.12-.36-.24-.36-.36,0-.56.5-.39.8-.53Z"/><path class="cls-2" d="M64.27,329.35l.46.63c-.72.16-.3-.43-.43-.66Z"/><path class="cls-2" d="M59.38,321.39c-.07-.24-.26-.63-.18-.69.3-.25.44.08.59.29Z"/><path class="cls-2" d="M63.05,327.65c-.12-.12-.36-.34-.35-.35.38-.43.37,0,.48.22Z"/><path class="cls-2" d="M63.18,327.52c.12.12.35.32.35.33-.35.41-.37,0-.48-.2Z"/><path class="cls-2" d="M64.3,329.32l-.27-.25c.06,0,.13,0,.16.05a1.55,1.55,0,0,1,.08.23Z"/><path class="cls-2" d="M320.82,57.69c-.47.08-.66-.13-.59-.59A.53.53,0,0,1,320.82,57.69Z"/><path class="cls-2" d="M320.22,57.09c-.47.1-.66-.09-.57-.56C320.06,56.5,320.25,56.69,320.22,57.09Z"/><path class="cls-1" d="M382.62,272.27a2.73,2.73,0,0,1,1.25-2.4C384.33,271.53,384.07,272,382.62,272.27Z"/><path class="cls-2" d="M327.23,64.08v.6c-.41.09-1,.26-.9-.41C326.37,63.84,326.9,64,327.23,64.08Z"/><path class="cls-2" d="M323.74,60l0,.59q-.8.22-.57-.57Z"/><path class="cls-2" d="M322.56,59.44c.39,0,.56.2.58.57C322.62,60.14,322.45,59.93,322.56,59.44Z"/><path class="cls-2" d="M331.29,86.26c0-.2,0-.4,0-.59,2.68-.08,4.34,1.54,5.81,3.48-2.12.43-3.2-1.54-4.88-2.12Z"/><path class="cls-2" d="M330.73,88.57l-.21-.1,0-.23L331.9,88a6.23,6.23,0,0,1,3.25,2.62l-.63.63A7.46,7.46,0,0,1,330.73,88.57Z"/><path class="cls-2" d="M335.15,90.63c.19.24.59.46.23.82s-.61,0-.86-.2Z"/></g></g></svg>