<svg xmlns="http://www.w3.org/2000/svg" viewBox="0 0 636.57 286.65"><defs><style>.cls-1{fill:none;stroke:#f45e5f;stroke-miterlimit:10;stroke-width:20px;}</style></defs><g id="Layer_2" data-name="Layer 2"><g id="Layer_1-2" data-name="Layer 1"><path class="cls-1" d="M318.28,201.33c13,0,21,19.67,14,30.56-17.74,27.56-64.52,44.76-119.43,44.76-60.3,0-110.8-47.25-123.8-87.13A234.51,234.51,0,0,0,64.48,138C37.65,95.11-3,24.12,14.05,12c24.7-17.65,250.59,90.58,250.59,90.58s30.58,14.12,38.82,28.24a223.37,223.37,0,0,1,12.53,26,2.48,2.48,0,0,0,4.59,0,221.75,221.75,0,0,1,12.53-26c8.23-14.12,38.82-28.24,38.82-28.24S597.81-5.7,622.52,12c17.05,12.17-23.6,83.16-50.44,126a234.47,234.47,0,0,0-24.58,51.57c-13,39.88-63.5,87.13-123.81,87.13-54.91,0-101.68-17.2-119.43-44.76-7-10.89,1.07-30.56,14-30.56Z"/><path class="cls-1" d="M487.11,151.46c3.76,2.93-22.05,43.23-50.72,48.34-17.13,3-43.69-.36-61.62-7.49-11.71-4.65-21.25-2.08-20.76-4.42,3.07-14.79,22.87-32.44,60.93-41.53C421.61,144.76,470.1,138.2,487.11,151.46Z"/><path class="cls-1" d="M147.12,151.46c-3.76,2.93,22,43.23,50.72,48.34,17.13,3,43.68-.36,61.62-7.49,11.71-4.65,21.25-2.08,20.76-4.42-3.07-14.79-22.87-32.44-60.93-41.53C212.62,144.76,164.12,138.2,147.12,151.46Z"/></g></g></svg>