<svg xmlns="http://www.w3.org/2000/svg" xmlns:xlink="http://www.w3.org/1999/xlink" viewBox="0 0 229.56 224.05"><defs><style>.cls-1{fill:url(#linear-gradient);}.cls-2{fill:url(#linear-gradient-2);}.cls-3{fill:url(#linear-gradient-3);}.cls-4{fill:url(#linear-gradient-4);}.cls-5{fill:url(#linear-gradient-5);}.cls-6{fill:url(#linear-gradient-6);}.cls-7{fill:url(#linear-gradient-7);}.cls-8{fill:url(#linear-gradient-8);}.cls-9{fill:url(#linear-gradient-9);}.cls-10{fill:url(#linear-gradient-10);}</style><linearGradient id="linear-gradient" x1="83.46" y1="13.02" x2="180.99" y2="114.83" gradientUnits="userSpaceOnUse"><stop offset="0" stop-color="#ff7bac"/><stop offset="0.21" stop-color="#ff7bac" stop-opacity="0.76"/><stop offset="0.59" stop-color="#ff7bac" stop-opacity="0.36"/><stop offset="0.85" stop-color="#ff7bac" stop-opacity="0.1"/><stop offset="0.98" stop-color="#ff7bac" stop-opacity="0"/></linearGradient><linearGradient id="linear-gradient-2" x1="71.51" y1="18.81" x2="145.96" y2="96.52" xlink:href="#linear-gradient"/><linearGradient id="linear-gradient-3" x1="1111.39" y1="-960.51" x2="1208.92" y2="-858.71" gradientTransform="translate(575.67 1468.9) rotate(-72)" xlink:href="#linear-gradient"/><linearGradient id="linear-gradient-4" x1="1099.44" y1="-954.72" x2="1173.89" y2="-877.02" gradientTransform="translate(575.67 1468.9) rotate(-72)" xlink:href="#linear-gradient"/><linearGradient id="linear-gradient-5" x1="2354.92" y1="-283.73" x2="2452.46" y2="-181.93" gradientTransform="matrix(-0.81, -0.59, 0.59, -0.81, 2150.57, 1375.33)" xlink:href="#linear-gradient"/><linearGradient id="linear-gradient-6" x1="2342.98" y1="-277.95" x2="2417.42" y2="-200.24" gradientTransform="matrix(-0.81, -0.59, 0.59, -0.81, 2150.57, 1375.33)" xlink:href="#linear-gradient"/><linearGradient id="linear-gradient-7" x1="2095.54" y1="1108.07" x2="2193.08" y2="1209.88" gradientTransform="matrix(-0.81, 0.59, -0.59, -0.81, 2548.25, -151.41)" xlink:href="#linear-gradient"/><linearGradient id="linear-gradient-8" x1="2083.6" y1="1113.86" x2="2158.04" y2="1191.57" gradientTransform="matrix(-0.81, 0.59, -0.59, -0.81, 2548.25, -151.41)" xlink:href="#linear-gradient"/><linearGradient id="linear-gradient-9" x1="691.7" y1="1291.48" x2="789.23" y2="1393.28" gradientTransform="translate(1219.12 -1001.41) rotate(72)" xlink:href="#linear-gradient"/><linearGradient id="linear-gradient-10" x1="679.75" y1="1297.27" x2="754.2" y2="1374.97" gradientTransform="translate(1219.12 -1001.41) rotate(72)" xlink:href="#linear-gradient"/></defs><g id="Layer_2" data-name="Layer 2"><g id="Layer_1-2" data-name="Layer 1"><path class="cls-1" d="M173.61,58.82a58.82,58.82,0,0,1-58.83,58.82C173.61,105.73,145.73-4.57,82.23,9.82a58.84,58.84,0,0,1,91.38,49Z"/><path class="cls-2" d="M114.78,117.64a58.88,58.88,0,0,0-55.94-77A58.93,58.93,0,0,1,82.23,9.82C145.73-4.57,173.61,105.73,114.78,117.64Z"/><path class="cls-3" d="M77,43.51a58.82,58.82,0,0,1,37.76,74.13C121.63,58,8.11,50.44,2.18,115.28A58.84,58.84,0,0,1,77,43.51Z"/><path class="cls-4" d="M114.78,117.64A58.89,58.89,0,0,0,24.24,147,58.9,58.9,0,0,1,2.18,115.28C8.11,50.44,121.63,58,114.78,117.64Z"/><path class="cls-5" d="M32.61,130.65a58.82,58.82,0,0,1,82.17-13C60.18,92.7,17.91,198.32,77.74,224a58.84,58.84,0,0,1-45.13-93.35Z"/><path class="cls-6" d="M114.78,117.64a58.88,58.88,0,0,0,0,95.19,58.92,58.92,0,0,1-37,11.17C17.91,198.32,60.18,92.7,114.78,117.64Z"/><path class="cls-7" d="M101.76,199.81a58.82,58.82,0,0,1,13-82.17c-40.6,44.21,46.79,117.06,89.71,68.1a58.84,58.84,0,0,1-102.73,14.07Z"/><path class="cls-8" d="M114.78,117.64a58.88,58.88,0,0,0,90.53,29.43,59,59,0,0,1-.82,38.67C161.57,234.7,74.18,161.85,114.78,117.64Z"/><path class="cls-9" d="M188.9,155.41a58.82,58.82,0,0,1-74.12-37.77c29.5,52.27,125.79-8.33,92.48-64.28A58.84,58.84,0,0,1,188.9,155.41Z"/><path class="cls-10" d="M114.78,117.64a58.87,58.87,0,0,0,56-77,58.87,58.87,0,0,1,36.52,12.72C240.57,109.31,144.28,169.91,114.78,117.64Z"/></g></g></svg>